<?xml version="1.0" encoding="utf-8"?>
<!-- Generator: Adobe Illustrator 24.1.1, SVG Export Plug-In . SVG Version: 6.00 Build 0)  -->
<svg version="1.1" id="Layer_1" xmlns="http://www.w3.org/2000/svg" xmlns:xlink="http://www.w3.org/1999/xlink" x="0px" y="0px"
	 viewBox="0 0 50 50" style="enable-background:new 0 0 50 50;" xml:space="preserve">
<style type="text/css">
	.st0{fill:#02225F;}
</style>
<path class="st0" d="M46.4,0H3.6C1.6,0,0,1.6,0,3.6v42.8c0,2,1.6,3.6,3.6,3.6h42.9c2,0,3.6-1.6,3.6-3.6V3.6C50,1.6,48.4,0,46.4,0z
	 M15.1,42.9H7.7V19h7.4L15.1,42.9L15.1,42.9z M11.4,15.7c-2.4,0-4.3-1.9-4.3-4.3S9,7.1,11.4,7.1c2.4,0,4.3,1.9,4.3,4.3
	C15.7,13.8,13.8,15.7,11.4,15.7z M42.9,42.9h-7.4V31.3c0-2.8-0.1-6.3-3.9-6.3c-3.9,0-4.5,3-4.5,6.1v11.8h-7.4V19h7.1v3.3H27
	c1-1.9,3.4-3.9,7-3.9c7.5,0,8.9,4.9,8.9,11.4V42.9z"/>
</svg>
