<?xml version="1.0" encoding="utf-8"?>
<!-- Generator: Adobe Illustrator 24.1.1, SVG Export Plug-In . SVG Version: 6.00 Build 0)  -->
<svg version="1.1" id="Layer_1" xmlns="http://www.w3.org/2000/svg" xmlns:xlink="http://www.w3.org/1999/xlink" x="0px" y="0px"
	 viewBox="0 0 50 50" style="enable-background:new 0 0 50 50;" xml:space="preserve">
<style type="text/css">
	.st0{fill:#02225F;}
</style>
<path class="st0" d="M7.1,0C3.2,0,0,3.2,0,7.1v35.7C0,46.8,3.2,50,7.1,50h35.7c3.9,0,7.1-3.2,7.1-7.1V7.1C50,3.2,46.8,0,42.9,0H7.1z
	 M24.3,26.8L7.2,15.7c0.2-1.8,1.7-3.2,3.5-3.2h28.6c1.8,0,3.3,1.4,3.5,3.2L25.7,26.8C25.5,26.9,25.2,27,25,27S24.5,26.9,24.3,26.8z
	 M27.6,29.8l15.2-9.8v14c0,2-1.6,3.6-3.6,3.6H10.7c-2,0-3.6-1.6-3.6-3.6v-14l15.2,9.8c0.8,0.5,1.7,0.8,2.6,0.8S26.8,30.3,27.6,29.8
	L27.6,29.8z"/>
</svg>
