<?xml version="1.0" encoding="utf-8"?>
<!-- Generator: Adobe Illustrator 24.1.1, SVG Export Plug-In . SVG Version: 6.00 Build 0)  -->
<svg version="1.1" id="Layer_1" xmlns="http://www.w3.org/2000/svg" xmlns:xlink="http://www.w3.org/1999/xlink" x="0px" y="0px"
	 viewBox="0 0 25 25" style="enable-background:new 0 0 25 25;" xml:space="preserve">
<style type="text/css">
	.st0{fill:#FFFFFF;}
</style>
<path class="st0" d="M12.5,0C5.6,0,0,5.6,0,12.5S5.6,25,12.5,25S25,19.4,25,12.5S19.4,0,12.5,0z M6.8,7.5h11.4
	c0.7,0,1.3,0.6,1.4,1.3l-6.9,4.4c-0.1,0.1-0.2,0.1-0.3,0.1s-0.2,0-0.3-0.1L5.4,8.8C5.4,8.1,6,7.5,6.8,7.5z M19.6,16.1
	c0,0.8-0.6,1.4-1.4,1.4H6.8c-0.8,0-1.4-0.6-1.4-1.4v-5.6l6.1,3.9c0.3,0.2,0.7,0.3,1,0.3s0.7-0.1,1-0.3l6.1-3.9V16.1z"/>
</svg>
