<?xml version="1.0" encoding="utf-8"?>
<!-- Generator: Adobe Illustrator 24.1.1, SVG Export Plug-In . SVG Version: 6.00 Build 0)  -->
<svg version="1.1" id="Layer_1" xmlns="http://www.w3.org/2000/svg" xmlns:xlink="http://www.w3.org/1999/xlink" x="0px" y="0px"
	 viewBox="0 0 414.1 276.7" style="enable-background:new 0 0 414.1 276.7;" xml:space="preserve">
<style type="text/css">
	.st0{clip-path:url(#SVGID_2_);}
	.st1{fill:#FFFFFF;}
	.st2{clip-path:url(#SVGID_4_);}
	.st3{clip-path:url(#SVGID_6_);}
	.st4{clip-path:url(#SVGID_8_);}
	.st5{clip-path:url(#SVGID_10_);}
</style>
<g>
	<g>
		<g>
			<defs>
				<rect id="SVGID_1_" x="0" y="0" width="414.1" height="276.7"/>
			</defs>
			<clipPath id="SVGID_2_">
				<use xlink:href="#SVGID_1_"  style="overflow:visible;"/>
			</clipPath>
			<g class="st0">
				<path class="st1" d="M69.2,310.3c2.1-12,3.1-24,3-36.1c-0.3,0.1-0.6,0.2-1,0.3c9.2,8.9,18.2,17.8,27.2,26.7
					c0.2-0.3,0.4-0.6,0.5-0.8c-13.5-3-27.6-3.4-41.2-1c0.2,0.3,0.4,0.6,0.5,0.8c10.5-9.2,23.7-15.4,36.7-21.4
					c-0.3-0.2-0.5-0.5-0.8-0.7c-4.3,6.1-8.7,12.2-13,18.4c-3.8,5.4-7.6,11.2-13.9,14.6c-0.6,0.3-0.1,1.2,0.6,0.9
					c5.9-3.2,9.6-8.3,13.2-13.3c4.7-6.7,9.4-13.4,14.2-20c0.3-0.4-0.3-0.9-0.8-0.7c-13.1,6-26.4,12.2-36.9,21.5
					c-0.4,0.4,0,0.9,0.5,0.8c13.5-2.3,27.3-2,40.6,1c0.6,0.1,0.9-0.5,0.5-0.8c-9-9-18.1-17.9-27.2-26.7c-0.3-0.3-1-0.1-1,0.3
					c0.1,12-0.9,24-2.9,35.9C68,310.7,69.1,311,69.2,310.3L69.2,310.3z"/>
			</g>
		</g>
		<g>
			<defs>
				<rect id="SVGID_3_" x="0" y="0" width="414.1" height="276.7"/>
			</defs>
			<clipPath id="SVGID_4_">
				<use xlink:href="#SVGID_3_"  style="overflow:visible;"/>
			</clipPath>
			<g class="st2">
				<g>
					<path class="st1" d="M429.7,169.3c-1.7-4-5.2-7.2-10.1-8c-4.3-0.6-8.7,1.3-10.3,4.9c-1.6,3.5-0.8,7.4,2.6,9.7
						c3.1,2.2,7.8,2.4,11.1,0.5c-0.3-0.2-0.5-0.5-0.8-0.7c-2.7,3.2-5.5,7.1-3.6,11.1c1.5,3.1,5.7,3.8,9.1,3.3
						c10.3-1.6,8.2-14.6,4-20.2c-0.4-0.5-1.4,0-1,0.5c2.1,2.8,3.2,5.9,3.3,9.2c0.1,3.6-0.9,7.7-5.1,9.2c-3.4,1.2-8,0.6-9.5-2.7
						c-1.7-3.5,1.4-7.2,3.7-9.9c0.3-0.4-0.3-0.9-0.8-0.7c-3,1.7-6.6,1.5-9.5-0.2c-3.3-1.8-3.9-5.5-2.8-8.5c1.4-3.6,5.7-5.1,9.7-4.5
						c4.2,0.6,7.3,3.8,8.7,7.2C428.9,170.1,430,169.9,429.7,169.3L429.7,169.3z"/>
					<path class="st1" d="M427.3,164.7c-4.1-5.3-9.6-9.6-16.1-12.5c-0.6-0.3-1.2,0.6-0.6,0.9c6.3,2.8,11.7,7,15.7,12.2
						C426.8,165.7,427.7,165.3,427.3,164.7L427.3,164.7z"/>
				</g>
			</g>
		</g>
		<g>
			<defs>
				<rect id="SVGID_5_" x="0" y="0" width="414.1" height="276.7"/>
			</defs>
			<clipPath id="SVGID_6_">
				<use xlink:href="#SVGID_5_"  style="overflow:visible;"/>
			</clipPath>
			<g class="st3">
				<g>
					<path class="st1" d="M215.8,193.1c-1.2-7.6-3.5-15.5-11-20.1c-7.6-4.7-17.5-1.9-24.6,2.1c-6.6,3.7-12.3,9.7-11.1,17
						c1.2,7.4,8.3,12.8,16.8,12.8c-0.1-0.3-0.2-0.6-0.3-0.9c-4.6,2.1-7.7,6.9-6.7,11.5c1,5.1,5.6,8.7,11.3,9.3
						c5.8,0.6,12.5-2.1,16.9-5.2c4.4-3.1,7.4-7.2,8.9-12c0.2-0.6-0.9-0.9-1.1-0.3c-2.5,8.5-10.5,14.4-20,16.2
						c-6.1,1.2-12.2-1.2-14.4-6.4c-2-4.7,0.9-9.9,5.7-12.2c0.5-0.2,0.3-0.9-0.3-0.9c-8.4,0-15.2-5.6-15.8-13
						c-0.6-7.2,5.7-12.5,12.2-15.8c7.1-3.7,16.3-5.3,23.2-0.5c6.4,4.5,8.2,12,9.2,18.7C214.9,194,215.9,193.7,215.8,193.1
						L215.8,193.1z"/>
					<path class="st1" d="M214.5,193.1c-0.8,2.8-1,5.6-0.7,8.5c0.2,1.9,0.5,4.7,2.5,5.9c4,2.3,10-0.8,12.6-3.5
						c3.3-3.5,1.3-7.9-2.4-10.3c-2.3-1.5-10.1-4.6-11.7-0.9c-0.3,0.6,0.8,0.8,1.1,0.3c0.8-1.7,4-0.7,5.4-0.4c2,0.5,3.9,1.3,5.5,2.4
						c3.7,2.7,3.3,6.8-0.1,9.5c-2.5,1.9-8.3,4.4-10.6,1.1c-1.1-1.6-1.1-4.1-1.2-5.9c-0.1-2.2,0.2-4.3,0.8-6.4
						C215.8,192.7,214.7,192.5,214.5,193.1L214.5,193.1z"/>
					<path class="st1" d="M214.6,198.9c-5.4-4.9-13.1-8.7-20.9-9.5c-0.7-0.1-0.7,0.9,0,1c7.5,0.8,14.8,4.5,20.1,9.2
						C214.4,200,215.2,199.3,214.6,198.9L214.6,198.9z"/>
					<path class="st1" d="M214.1,199.2c-6,0.9-12.6,3.7-15.4,8.7c-0.3,0.6,0.6,1.1,1,0.5c2.7-4.8,9.1-7.4,14.8-8.2
						C215.1,200.1,214.8,199.1,214.1,199.2L214.1,199.2z"/>
					<path class="st1" d="M220.2,191.8c1.3-9.4,9-17.5,18.9-20.9c7-2.4,11.9,3.3,13.6,8.6c1.7,5.2-0.4,11.2-6,13.9
						c-0.5,0.2-0.3,0.9,0.3,0.9c5.2-0.1,11.2,0.1,13.8,4.7c2.4,4.1,0.4,9.2-3.6,11.9c-4.3,2.9-10.2,2.9-15.1,1.4
						c-2.7-0.8-5.1-2.2-7.3-3.8c-1.5-1.1-5.8-3.9-5-5.8c0.2-0.6-0.8-0.9-1.1-0.3c-0.9,2.2,1.9,3.9,3.5,5.3c2.4,2.1,5.3,3.8,8.4,5
						c5.5,2.2,12.2,2,17.2-1.1c4.5-2.7,6.2-7.9,4.4-12.4c-2.2-5.7-9.4-6.1-15.2-6c0.1,0.3,0.2,0.6,0.3,0.9c5.5-2.7,7.7-8.1,6.9-13.4
						c-0.9-5.2-5.4-11.6-12-11.6c-3,0-6.1,1.6-8.6,2.9c-2.7,1.4-5,3.2-7.1,5.2c-4.1,4-6.7,9-7.4,14.3
						C219,192.4,220.1,192.4,220.2,191.8L220.2,191.8z"/>
					<path class="st1" d="M226,194.1c3.2-2.5,7.2-3.8,11.4-3.7c0.7,0,0.7-1,0-1c-4.5-0.1-8.8,1.3-12.2,4
						C224.7,193.8,225.5,194.5,226,194.1L226,194.1z"/>
					<path class="st1" d="M230.7,201.4c4.2-1.6,8.9-1.6,13.1-0.1c0.7,0.2,1.2-0.6,0.6-0.9c-4.6-1.7-9.6-1.7-14.3,0.1
						C229.5,200.8,230,201.7,230.7,201.4L230.7,201.4z"/>
					<path class="st1" d="M203.5,221.2c-0.1,3.7,1.1,7,3.7,10c0.2,0.3,0.8,0.4,1,0c0.9-1.8,1.7-3.5,2.5-5.3c-0.3,0-0.7,0.1-1,0.1
						c1.3,1.8,3.1,3,5.4,3.7c2.6,0.7,2-3,2.1-4.2c0.5-6.3,2.4-12.3,5.6-17.9c0.3-0.6-0.6-1.1-1-0.5c-2.3,4-4,8.3-4.9,12.7
						c-0.5,2.2-0.7,4.5-0.9,6.8c0,0.6-0.1,1.2-0.1,1.7c0,0.8-1.8-0.1-1.9-0.1c-1.4-0.6-2.5-1.6-3.3-2.7c-0.3-0.4-0.9-0.3-1,0.1
						c-0.7,1.7-1.5,3.4-2.4,5.1c0.3,0,0.6,0,1,0c-2.4-2.8-3.6-6-3.5-9.5C204.6,220.5,203.5,220.5,203.5,221.2L203.5,221.2z"/>
					<path class="st1" d="M223.9,207c4.8,6.7,5,14.8,5.1,22.5c0,0.5,0.6,0.6,1,0.3c2.8-2.2,2-6.9,5.5-8.3c-0.2,0-0.5-0.1-0.7-0.1
						c1.4,1.4,3.9,5.1,6,2.6c1.1-1.3,1.3-3.5,1.6-5.1c0.4-1.9,0.5-3.8,0.4-5.7c0-0.6-1.1-0.6-1.1,0c0.1,2.5-0.2,4.9-0.8,7.3
						c-0.1,0.5-0.9,4.3-2.3,3c-1-0.9-2-1.9-3-2.9c-0.2-0.2-0.5-0.2-0.7-0.1c-3.8,1.5-2.9,6.2-5.8,8.4c0.3,0.1,0.6,0.2,1,0.3
						c-0.1-7.9-0.4-16.2-5.3-23C224.5,206,223.5,206.5,223.9,207L223.9,207z"/>
				</g>
				<g>
					<path class="st1" d="M391.3,110.6c-0.6-4.5-3.3-9.4-8.2-11.4c-5.3-2.1-8,2.7-8.1,6.6c-0.2,5.2,3.4,10.4,6.7,14.4
						c3.5,4.3,7.9,7.9,12.9,10.7c0.3,0.2,0.6,0,0.8-0.2c3.6-4.3,7.3-8.6,10.7-13.1c2.8-3.7,5.1-8.2,3.1-12.6
						c-1.6-3.5-5.9-5.7-10.1-5.2c-5,0.6-8,4-9.5,8c-0.2,0.6,0.9,0.9,1.1,0.3c1.5-4,4.6-7.3,9.8-7.4c4.9,0,8.4,3.9,8.4,8
						c0,4-3,7.7-5.5,10.7c-2.9,3.6-5.9,7.2-8.9,10.7c0.3-0.1,0.5-0.1,0.8-0.2c-7.8-4.5-14.4-11.1-17.8-18.8
						c-1.5-3.4-2.6-12.5,4.3-11.4c5.1,0.8,8.1,6.8,8.6,10.8C390.3,111.2,391.4,111.2,391.3,110.6L391.3,110.6z"/>
					<path class="st1" d="M396.3,114.1c6.5-2.5,13.1-4.7,19.9-6.4c0.7-0.2,0.4-1.1-0.3-1c-6.9,1.7-13.6,3.9-20.2,6.5
						C395.1,113.5,395.6,114.4,396.3,114.1L396.3,114.1z"/>
					<path class="st1" d="M414.4,106.1c0.3,1,0.6,2,0.9,3c0.1,0.4,0.6,0.5,0.9,0.2c0.9-0.8,2-1.5,3.2-2c0.5-0.2,0.3-0.8-0.1-0.9
						c-1-0.3-2-0.6-3-0.9c-0.7-0.2-1,0.7-0.3,1c1,0.3,2,0.6,3,0.9c0-0.3-0.1-0.6-0.1-0.9c-1.2,0.6-2.4,1.3-3.4,2.2
						c0.3,0.1,0.6,0.1,0.9,0.2c-0.3-1-0.6-2-0.9-3C415.3,105.3,414.2,105.5,414.4,106.1L414.4,106.1z"/>
					<path class="st1" d="M379.4,117.3c-2.7,1.2-5.3,2.4-8,3.5c-1.6,0.7-3.2,0.1-4.8-0.3s-3.1-0.8-4.7-1.2c-0.7-0.2-1,0.8-0.3,1
						c1.8,0.5,3.6,0.9,5.4,1.4c1.3,0.3,2.4,0.6,3.8,0.4s2.9-1.2,4.2-1.7c1.7-0.7,3.3-1.5,5-2.2C380.6,117.9,380,117,379.4,117.3
						L379.4,117.3z"/>
					<path class="st1" d="M369.4,122.2c-0.9,1.5-1.8,3.1-2.7,4.6c-0.3,0.6,0.6,1.1,1,0.5c0.9-1.5,1.8-3.1,2.7-4.6
						C370.7,122.2,369.7,121.7,369.4,122.2L369.4,122.2z"/>
					<path class="st1" d="M368.5,122.2c-2.4,1-5,1.6-7.6,1.9c-0.7,0.1-0.7,1.1,0,1c2.9-0.3,5.6-1,8.2-2
						C369.8,122.8,369.2,121.9,368.5,122.2L368.5,122.2z"/>
				</g>
				<g>
					<path class="st1" d="M113.5,180.7c-1,0.9-0.2,1.9,0.8,2.5c1.6,1.1,4.2,1.2,6.1,1c4.1-0.4,7.7-3.1,8.2-6.8
						c0.4-3.8-4.9-5.6-8.4-5c-4.6,0.8-7.7,4.4-7.2,8.6c0.1,0.6,1.2,0.6,1.1,0c-0.3-2.8,1.1-5.5,3.9-6.9c2.9-1.5,8.1-1.1,9.3,2.1
						c1,2.7-1.9,5.3-4.3,6.4c-1.3,0.6-2.7,0.7-4.1,0.7c-0.4,0-5.7-0.9-4.6-2C114.8,180.9,114,180.2,113.5,180.7L113.5,180.7z"/>
					<path class="st1" d="M116.5,174.5c0.5-4-0.6-7.9-3.1-11.2c-1.7-2.2-6.2-6.4-9.5-3.7c-2.8,2.4-1.9,6.3-1,9.2c1.3,4.2,4,8,7.5,11
						c0.2-0.3,0.5-0.5,0.7-0.8c-3.3-1.9-7.5-1.9-10.8-0.1c-3.1,1.7-4.8,5.1-4.3,8.2c0.7,3.5,5.5,3.9,8.5,3.2c4.5-1.1,8.8-4,12.3-6.7
						c-0.3-0.2-0.5-0.5-0.8-0.7c-2.4,2.5-3.5,5.5-3.3,8.8c0.2,3,2,6.3,5.5,7.1c3.6,0.8,5.2-2,5.9-4.6c1.1-3.9,0.5-8.1-0.5-12
						c-0.2-0.6-1.2-0.4-1.1,0.3c0.7,2.7,1.1,5.4,1,8.1c-0.1,2.7-0.7,7.8-5,7.2c-3.3-0.4-4.5-4.2-4.7-6.7c-0.2-2.7,1-5.5,3-7.5
						c0.5-0.5-0.2-1.1-0.8-0.7c-2.4,1.8-5,3.4-7.8,4.8c-3.1,1.5-7.2,3.2-10.2,0.7s0.3-7.1,2.8-8.7c2.9-1.8,6.8-1.6,9.7,0.1
						c0.5,0.3,1.1-0.4,0.7-0.8c-2.9-2.4-5-5.3-6.5-8.5c-1.2-2.8-2.4-6.3-0.9-9.2c2.3-4.7,8.1,1.4,9.5,3.6c1.9,2.8,2.5,6.2,2.1,9.4
						C115.3,175.1,116.4,175.1,116.5,174.5L116.5,174.5z"/>
					<path class="st1" d="M121.3,182.9c0.8,3.5,2.9,6.7,6.2,8.8c3.1,2,7.6,3.5,11,1.2c3.1-2,2.4-5.9,0.6-8.4
						c-2.5-3.4-7.2-5.5-11.5-6.3c-0.1,0.3-0.2,0.6-0.3,1c4.8,0.6,9.9-0.9,13.6-3.6c3.4-2.6,3.9-6.9,0.5-9.7
						c-3.2-2.5-8.8-3.3-12.7-1.8s-6.5,5.1-5.4,8.8c0.2,0.6,1.3,0.4,1.1-0.3c-0.9-3.2,1.2-6.1,4.3-7.5c3.4-1.6,7.9-0.8,11.1,0.9
						c4.4,2.4,3,7-0.6,9.4c-3.2,2.1-7.8,3.3-11.7,2.8c-0.7-0.1-1,0.8-0.3,1c3.6,0.7,6.8,2.1,9.4,4.4c2.8,2.3,4.5,7,0.4,9.1
						c-3.1,1.6-7.4-0.5-9.8-2.3c-2.6-2-4.3-4.7-5-7.7C122.2,182,121.1,182.3,121.3,182.9L121.3,182.9z"/>
					<path class="st1" d="M114.1,164.4c-2.3-3.3,1.1-6.8,5.1-6.6c4.3,0.2,6.4,4.2,6.1,7.5c-0.1,0.6,1.1,0.6,1.1,0
						c0.4-4.5-2.9-8.7-8.3-8.6c-4.5,0.1-7.4,4.7-5,8.1C113.5,165.4,114.5,164.9,114.1,164.4L114.1,164.4z"/>
				</g>
				<path class="st1" d="M194.1,34.3c-4.9-2.4-10.9-1.6-15.3,1.4c-4.8,3.2-6.1,8.6-4.4,13.5c1.8,5.3,7,9.1,13.1,9.9
					c6.4,0.8,13-1.8,16.9-6.2c-0.3,0-0.6-0.1-0.9-0.1c6,7.1,16.2,10.8,26.1,9.4c9.8-1.4,18-8.3,20.9-16.5c-0.3,0-0.7,0.1-1,0.1
					c3.3,4.6,9.5,6.3,15.4,5.5c6.6-1.1,11.4-6,12.2-11.8c0.9-6.4-2.1-12.6-8.2-16.2c-6.2-3.7-14.6-4-21.4-1.6
					c0.2,0.2,0.5,0.3,0.7,0.5c0.6-7.3-7.7-12.4-15.3-12.6c-9.6-0.2-17.2,7.4-21.6,14.2c0.3,0,0.6,0,1,0c-4.9-5.6-13.6-8.8-20.8-4.4
					c-5.7,3.5-5.8,12.1,1,14.7c0.7,0.3,1.2-0.6,0.6-0.9c-2.9-1.1-4.5-3.6-4.8-6.4c-0.2-3,1.8-5.6,4.6-7.1c6.4-3.6,14.2-0.3,18.4,4.5
					c0.2,0.3,0.7,0.4,1,0c4.1-6.4,10.5-12.7,19.2-13.6c7.4-0.7,16.2,4.4,15.6,11.5c0,0.3,0.4,0.6,0.7,0.5c6.2-2.2,13.3-2,19.2,0.8
					c6,2.8,9.3,8.4,9.2,14.3c-0.1,5.7-4.1,10.7-10.3,12.2c-5.6,1.4-12.3-0.2-15.5-4.7c-0.3-0.4-0.9-0.3-1,0.1
					c-2.7,7.8-10.1,13.8-19,15.7c-9.6,2-20.1-1.9-25.9-8.7c-0.2-0.2-0.6-0.4-0.9-0.1c-3.6,4-9.2,6.2-15,6
					c-5.9-0.2-10.7-3.7-12.9-8.4c-2.1-4.5-1-9.5,3-12.7c3.9-3.2,10.1-4.1,14.7-1.8C194.2,35.5,194.7,34.6,194.1,34.3L194.1,34.3z"/>
				<path class="st1" d="M69.2,33.7c2.1-12,3.1-24,3-36.1c-0.3,0.1-0.6,0.2-1,0.3c9.2,8.9,18.2,17.8,27.2,26.7
					c0.2-0.3,0.4-0.6,0.5-0.8c-13.5-3-27.6-3.4-41.2-1c0.2,0.3,0.4,0.6,0.5,0.8C68.7,14.4,81.9,8.2,94.9,2.2
					c-0.3-0.2-0.5-0.5-0.8-0.7c-4.3,6.1-8.7,12.2-13,18.4c-3.8,5.4-7.6,11.2-13.9,14.6c-0.6,0.3-0.1,1.2,0.6,0.9
					c5.9-3.2,9.6-8.3,13.2-13.3c4.7-6.7,9.4-13.4,14.2-20c0.3-0.4-0.3-0.9-0.8-0.7C81.3,7.4,68,13.6,57.5,22.9
					c-0.4,0.4,0,0.9,0.5,0.8c13.5-2.3,27.3-2,40.6,1c0.6,0.1,0.9-0.5,0.5-0.8C90.1,14.9,81,6,71.9-2.8c-0.3-0.3-1-0.1-1,0.3
					c0.1,12-0.9,24-2.9,35.9C68,34,69.1,34.3,69.2,33.7L69.2,33.7z"/>
				<path class="st1" d="M31.3,111.9c5.8-6.5,11-13.4,15.5-20.7c-0.3,0-0.7-0.1-1-0.1c2.1,8,4.1,16,6.1,24c0.3-0.2,0.6-0.3,0.9-0.5
					c-6.9-5.8-15.2-10.2-24.3-12.8c0,0.3,0,0.6,0,1c9.8-2.4,19.9-2.2,29.9-1.9c-0.1-0.3-0.2-0.6-0.3-0.9c-4.7,2.3-9.4,4.6-14.1,6.8
					c-4.5,2.2-9.1,4.6-14.3,4.9c-0.7,0-0.7,1,0,1c5-0.2,9.3-2.3,13.6-4.4c5.1-2.5,10.3-5,15.4-7.4c0.5-0.2,0.3-0.9-0.3-0.9
					c-10.1-0.3-20.4-0.5-30.2,1.9c-0.6,0.1-0.5,0.8,0,1c8.9,2.6,17,6.9,23.8,12.6c0.4,0.4,1.1,0,0.9-0.5c-2-8-4-16-6.1-24
					c-0.1-0.4-0.8-0.5-1-0.1c-4.5,7.2-9.6,14-15.3,20.5C30,111.7,30.8,112.4,31.3,111.9L31.3,111.9z"/>
				<path class="st1" d="M84.3,142.9c-2.4-5.3-5.2-10.5-8.4-15.4c-0.2,0.2-0.4,0.5-0.6,0.7c6.1,1.7,12.2,3.5,18.2,5.2
					c0-0.3,0-0.6,0-1c-6.4,1.6-12.2,4.4-17.2,8.2c0.3,0.2,0.6,0.3,0.9,0.5c1.8-5.9,5.5-11.1,9.2-16.3c-0.3-0.1-0.7-0.2-1-0.2
					c-0.1,3.3-0.3,6.5-0.4,9.8c-0.1,3.1-0.1,6.3-1.8,9.1c-0.3,0.6,0.6,1.1,1,0.5c1.5-2.6,1.7-5.4,1.9-8.3c0.1-3.7,0.3-7.4,0.4-11.1
					c0-0.5-0.8-0.6-1-0.2c-3.7,5.2-7.5,10.5-9.3,16.5c-0.2,0.5,0.5,0.8,0.9,0.5c4.9-3.7,10.5-6.4,16.7-8c0.6-0.1,0.5-0.8,0-1
					c-6.1-1.8-12.1-3.5-18.2-5.2c-0.5-0.1-0.9,0.4-0.6,0.7c3.2,4.9,6,9.9,8.3,15.2C83.5,143.8,84.6,143.5,84.3,142.9L84.3,142.9z"/>
				<g>
					<path class="st1" d="M264,119.9c-5.3-1.5-9.5-5.2-13.3-8.7c-3.8-3.5-7.2-7.3-10.9-10.9c-6.8-6.5-15-12.4-25.4-13.3
						c-9.5-0.8-18.1,4.2-21.9,11.8c-3.9,7.8-2.1,17.5,4,24c7.6,8.2,20.6,10,31.8,8.9c11.8-1.1,23.3-5.1,32.8-11.4
						c0.6-0.4,0-1.2-0.6-0.9c-8.8,5.7-19,9.5-29.8,11c-11.1,1.5-23.4,0.3-31.9-6.8c-8.1-6.8-9.7-18.7-3.8-27.1
						c2.7-3.9,7.1-6.8,12.1-8c5.5-1.3,11.4-0.3,16.5,1.8c8.4,3.4,14.6,9.9,20.5,15.9c5.4,5.5,11.4,12.4,19.5,14.6
						C264.4,121,264.7,120.1,264,119.9L264,119.9z"/>
					<path class="st1" d="M198.8,101.4c-0.9,1.1,0.6,2.6,1.9,2c0.5-0.3,0.8-0.9,0.8-1.4c-0.1-0.7-0.7-1.1-1.4-1.1s-1.3,0.4-1.5,1
						c-0.2,0.7,0.4,1.3,1.1,1.5c0.3,0.1,0.7,0.1,1.1-0.1c0.4-0.2,0.6-0.7,0.6-1c0-0.4-0.1-0.8-0.6-0.9c-0.4-0.1-0.8,0-1.1,0.2
						c-0.5,0.5,0.3,1.2,0.8,0.7c0,0-0.1-0.1,0,0c-0.1-0.1-0.1-0.2-0.2-0.3c0,0.2,0,0.4-0.1,0.6c0.1-0.1,0.1-0.1,0.2-0.2
						c-0.2,0.1-0.6-0.2-0.5-0.4c0.1-0.2,0.6-0.3,0.7-0.1c0.1,0.2-0.1,0.6-0.3,0.6c-0.4,0-0.4-0.5-0.3-0.7
						C200.2,101.3,199.2,100.8,198.8,101.4L198.8,101.4z"/>
					<path class="st1" d="M217.4,103.9c0.7-0.7,0.4-1.8-0.6-2.1c-0.5-0.2-1.1,0.1-1.5,0.4c-0.4,0.4-0.5,1-0.2,1.4s0.8,0.6,1.3,0.6
						c0.6,0,1.1-0.3,1.1-0.8c-0.1-0.9-1.4-1.5-2.3-1c-0.2,0.1-0.3,0.3-0.3,0.6c0.2,0.5,0.6,0.8,1.1,1c0.2,0.1,0.5-0.1,0.6-0.2
						c0.2-0.2,0.5-0.6,0.5-0.9c0-0.3-0.2-0.5-0.4-0.7c-0.4-0.4-1.1-0.5-1.5-0.1c-0.2,0.2-0.2,0.5,0,0.7c0.2,0.2,0.6,0.2,0.8,0
						c0.1-0.1,0-0.1-0.2,0h0.1c0.1,0.1,0.2,0.2,0.2,0.3c0-0.2,0-0.3,0-0.5c-0.1,0.2-0.3,0.4-0.4,0.6c0.2-0.1,0.4-0.2,0.6-0.2
						c-0.1,0-0.3-0.2-0.3-0.3c-0.1,0.2-0.2,0.4-0.3,0.6c0.3-0.2,0.6,0,0.6,0.3c0.1-0.1,0.2-0.3,0.3-0.4c-0.3,0.2-0.8-0.1-0.5-0.4
						c0.3-0.3,0.6,0.2,0.4,0.4C216.1,103.7,216.9,104.4,217.4,103.9L217.4,103.9z"/>
					<path class="st1" d="M204.1,108.4c-1.8,1.4-3.5,2.9-5,4.5c-0.7,0.8-1.4,1.5-0.3,2.2c1.2,0.7,4-0.5,5.1-0.8
						c2.2-0.6,4.2-1.3,6.2-2.2c0.6-0.3,0.1-1.1-0.6-0.9c-2.7,1.2-5.6,2.1-8.5,2.7c-1.2,0.3-1.9,0.4-0.8-0.8c0.4-0.5,0.8-0.9,1.3-1.3
						c1-1,2.1-1.9,3.3-2.8C205.4,108.7,204.6,108,204.1,108.4L204.1,108.4z"/>
					<path class="st1" d="M203.8,109.8c2,0.6,4,1.2,6,1.9c0.7,0.2,1-0.7,0.3-1c-2-0.7-4-1.4-6-1.9
						C203.4,108.7,203.1,109.6,203.8,109.8L203.8,109.8z"/>
					<path class="st1" d="M226.3,112.9c-2,2.6,1,5.9,3.6,7.3c1.5,0.8,3.3,0.8,4.9,0.3c0.7-0.3,1.3-0.7,1.7-1.2
						c0.6-0.7,0.7-0.5,1.6-0.2c3,1,6.6-0.4,8.2-2.8c2.1-3.2-4.3-5.5-6.8-5.9c-0.7-0.1-1,0.9-0.3,1c2.9,0.4,8.5,2.7,5,5.7
						c-0.9,0.8-2.3,1.2-3.6,1.3c-1.3,0.1-2.3-0.4-3.5-0.7c-0.5-0.1-0.8,0-1.1,0.3c-0.3,0.2-0.5,0.7-0.7,0.9c-0.6,0.7-1.7,0.9-2.7,1
						c-3,0.2-7.3-3.9-5.4-6.5C227.7,112.8,226.7,112.3,226.3,112.9L226.3,112.9z"/>
					<path class="st1" d="M237,130c-0.2,2,0.1,4,0.8,5.9c0.5,1.3,0.7,1.7-0.5,2.6c-1.1,0.9-2.3,1.6-3.6,2.2
						c-0.6,0.3-0.1,1.2,0.6,0.9c1.2-0.6,2.3-1.3,3.4-2c0.7-0.5,1.7-1.1,1.9-1.9s-0.6-1.9-0.8-2.6c-0.6-1.6-0.7-3.4-0.5-5.1
						C238.2,129.4,237.1,129.4,237,130L237,130z"/>
					<path class="st1" d="M221.7,132.6c0.6,1.5,1.2,3.1,1.6,4.7c0.4,1.3,0,1.9-1.1,2.7c-0.9,0.6-1.7,1.3-2.6,1.9
						c-0.6,0.4,0.2,1.1,0.8,0.7c1-0.8,2.1-1.5,3.1-2.3c0.4-0.3,1.3-0.8,1.3-1.4c-0.2-2.2-1.2-4.5-2.1-6.6
						C222.5,131.8,221.4,132,221.7,132.6L221.7,132.6z"/>
				</g>
				<g>
					<path class="st1" d="M15.6,169.3c-1.7-4-5.2-7.2-10.1-8c-4.3-0.6-8.7,1.3-10.3,4.9c-1.6,3.5-0.8,7.4,2.6,9.7
						c3.1,2.2,7.8,2.4,11.1,0.5c-0.3-0.2-0.5-0.5-0.8-0.7c-2.7,3.2-5.5,7.1-3.6,11.1c1.5,3.1,5.7,3.8,9.1,3.3
						c10.3-1.6,8.2-14.6,4-20.2c-0.4-0.5-1.4,0-1,0.5c2.1,2.8,3.2,5.9,3.3,9.2c0.1,3.6-0.9,7.7-5.1,9.2c-3.4,1.2-8,0.6-9.5-2.7
						c-1.7-3.5,1.4-7.2,3.7-9.9c0.3-0.4-0.3-0.9-0.8-0.7c-3,1.7-6.6,1.5-9.5-0.2c-3.3-1.8-3.9-5.5-2.8-8.5c1.4-3.6,5.7-5.1,9.7-4.5
						c4.2,0.6,7.3,3.8,8.7,7.2C14.8,170.1,15.9,169.9,15.6,169.3L15.6,169.3z"/>
					<path class="st1" d="M15.5,168.3c-2.4-3.9-4.1-8.9-0.4-12.6c2.5-2.5,5.7-0.8,6.1,2c0.3,2.1-1,4.3-1.4,6.4
						c-0.1,0.4,0.5,0.9,0.9,0.5c4.7-5.1,12.3,0.2,15.1,4.2c2.5,3.6-2.3,6.1-5.8,6.3c-3.6,0.3-7-1.2-10.1-2.5
						c-0.6-0.3-1.2,0.6-0.6,0.9c4,1.7,8.1,3.2,12.7,2.4c3.5-0.6,6.3-3.3,5.3-6.5c-0.5-1.5-2-2.9-3.2-4c-1.3-1.3-3-2.5-4.8-3.1
						c-3.2-1.2-7.1-0.9-9.4,1.6c0.3,0.2,0.6,0.3,0.9,0.5c0.6-2.8,2.2-5.6,1-8.4c-0.9-2.1-3.2-2.9-5.5-2.2c-2.8,0.9-4.1,3.7-4.5,6
						c-0.5,3.2,0.9,6.3,2.6,9.1C14.9,169.4,15.9,168.9,15.5,168.3L15.5,168.3z"/>
					<path class="st1" d="M13.2,164.7c-4.1-5.3-9.6-9.6-16.1-12.5c-0.6-0.3-1.2,0.6-0.6,0.9c6.3,2.8,11.7,7,15.7,12.2
						C12.7,165.7,13.6,165.3,13.2,164.7L13.2,164.7z"/>
					<path class="st1" d="M13.2,165.7c-2.1-5.5-4.3-11.3-3.1-17.3c0.1-0.6-1-0.9-1.1-0.3c-1.2,6.1,0.9,12,3.1,17.8
						C12.3,166.6,13.4,166.3,13.2,165.7L13.2,165.7z"/>
					<path class="st1" d="M13.2,167.3c-2.3-1.3-5.9-0.9-7.4,1.2c-2.5,3.4,3,4.1,5.7,3.5c-0.2-0.2-0.4-0.5-0.6-0.7
						c-0.9,1.7-1.1,3.3-0.5,5.1c0.4,1,1.6,2.3,3,2.1c4-0.8,2.7-6.2,1.1-8.2c-0.4-0.5-1.4,0-1,0.5c1.3,1.7,1.9,3.8,1,5.8
						c-0.4,0.9-1.2,1-2.4,0.5c-0.4-0.4-0.6-0.9-0.8-1.4c-0.5-1.3-0.1-2.7,0.5-3.8c0.2-0.4-0.1-0.8-0.6-0.7c-1.2,0.3-2.2,0.3-3.4,0.1
						c-2.2-0.4-1.3-2.2,0-3c1.4-0.9,3.4-0.8,4.8,0C13.2,168.5,13.8,167.6,13.2,167.3L13.2,167.3z"/>
					<path class="st1" d="M14,166.8c0.5-0.8,1.1-1.6,1.9-2.2c0.5,0.1,1.1,0.2,1.6,0.4c0.1,0.5,0,1-0.2,1.5s-0.4,1-0.5,1.5
						s0.5,0.8,0.9,0.5c1.6-1.2,3.4-2.4,5.7-1.7c-0.1-0.2-0.3-0.3-0.4-0.5c0,3.2-6.3,2.9-8.7,2.9c-0.3,0-0.6,0.2-0.6,0.5
						c0,0.8,0,1.6,0,2.4c0,0.6,1.1,0.6,1.1,0c0-0.8,0-1.6,0-2.4c-0.2,0.2-0.4,0.3-0.6,0.5c3.2,0,9.8,0.2,9.8-3.9
						c0-0.2-0.2-0.4-0.4-0.5c-2.6-0.8-4.8,0.5-6.8,2c0.3,0.2,0.6,0.3,0.9,0.5c0.4-1.6,1.7-3.9-0.6-5c-1.8-0.8-3.6,1.9-4.3,3
						C12.7,166.9,13.7,167.4,14,166.8L14,166.8z"/>
					<path class="st1" d="M7.4,169c-0.1,0.9-0.1,1.8,0,2.7c0,0.4,0.6,0.7,1,0.3c0.9-1,1.5-2.1,1.9-3.4c-0.4,0-0.7-0.1-1.1-0.1
						c0.1,0.9,0.2,1.8,0.2,2.7c0,0.5,0.8,0.7,1,0.2c0.7-1.2,1.4-2.4,2.1-3.5c-0.3-0.1-0.7-0.2-1-0.2c0.2,2.9,0.5,5.8,0.7,8.8
						c0,0.5,1,0.7,1.1,0.1c0.2-1.2,0.4-2.3,0.6-3.5c-0.4,0-0.7,0-1.1,0c0.3,1,0.3,1.8,0.1,2.8c0.4,0,0.7,0.1,1.1,0.1
						c0.3-3.3,0.7-6.6,1-9.9c-0.4,0-0.7,0.1-1.1,0.1c0.2,1,0.3,2.1,0.5,3.1c0.1,0.5,0.9,0.4,1.1,0c0.3-1.1,0.5-2.3,0.5-3.4
						c-0.4,0-0.7,0-1.1,0c0,1.2,0.6,2.2,1.6,3.1c0.2,0.2,0.6,0.2,0.8,0c0.3-0.4,0.7-0.8,1-1.2c-0.3,0-0.6-0.1-0.9-0.1
						c0.4,0.5,0.8,1,1.3,1.4c0.3,0.2,0.9,0.2,0.9-0.2c0.1-0.6,0.3-1.2,0.5-1.8c-0.3,0-0.7,0.1-1,0.1c0.2,0.3,0.3,0.6,0.5,0.9
						c0.1,0.2,0.4,0.3,0.6,0.2c0.4-0.1,0.9-0.2,1.3-0.2c0.7,0,0.7-1,0-1c-0.6,0-1.1,0.1-1.6,0.2c0.2,0.1,0.4,0.2,0.6,0.2
						c-0.2-0.3-0.3-0.6-0.5-0.9c-0.2-0.4-0.9-0.3-1,0.1c-0.2,0.6-0.4,1.2-0.5,1.8c0.3-0.1,0.6-0.1,0.9-0.2c-0.5-0.4-0.8-0.8-1.2-1.2
						c-0.2-0.2-0.6-0.4-0.9-0.1c-0.3,0.4-0.7,0.8-1,1.2c0.3,0,0.5,0,0.8,0c-0.8-0.6-1.3-1.4-1.3-2.4c0-0.6-1.1-0.6-1.1,0
						c0,1.1-0.2,2.1-0.5,3.2c0.4,0,0.7,0,1.1,0c-0.2-1-0.3-2.1-0.5-3.1c-0.1-0.6-1-0.4-1.1,0.1c-0.3,3.3-0.7,6.6-1,9.9
						c-0.1,0.6,1,0.7,1.1,0.1c0.3-1.1,0.3-2.2-0.1-3.3c-0.1-0.4-1-0.5-1.1,0c-0.2,1.2-0.4,2.3-0.6,3.5c0.4,0,0.7,0.1,1.1,0.1
						c-0.2-2.9-0.5-5.8-0.7-8.8c0-0.5-0.8-0.7-1-0.2c-0.7,1.2-1.4,2.4-2.1,3.5c0.3,0.1,0.7,0.2,1,0.2c-0.1-0.9-0.1-1.8-0.2-2.7
						c-0.1-0.5-0.9-0.7-1.1-0.1c-0.3,1.1-0.9,2-1.6,2.9c0.3,0.1,0.6,0.2,1,0.3c-0.1-0.9-0.1-1.8,0-2.7C8.6,168.4,7.4,168.4,7.4,169
						L7.4,169z"/>
				</g>
				<g>
					<path class="st1" d="M380.9,36.2c-6,10-20.6,7.5-30.6,5c-10.2-2.6-21.7-4.9-32-1.2c-4,1.4-7.3,4.1-9.2,7.5
						c-2,3.7-1.2,7.8,0.1,11.5c2.7,7.4,8.6,13.6,15.7,17.9c14.1,8.6,33.7,9.1,47-0.9c6.8-5.1,11.1-12.2,13.7-19.6
						c1.3-3.8,2-7.8,2.6-11.7c0.5-3.2-0.2-5.9-1.8-8.8c-0.3-0.6-1.3-0.1-1,0.5c1,1.9,1.7,3.7,1.8,5.8c0.1,2.2-0.5,4.3-0.8,6.5
						c-0.9,5-2.5,9.9-4.9,14.5c-4.5,8.3-12.5,15.3-22.7,18c-19.7,5.2-42.6-5.9-48.8-23c-1.1-3.1-1.7-6.4-0.4-9.5
						c1.2-3.1,4.2-5.5,7.3-7.1c7.3-3.6,17.1-2.9,25-1.4c8,1.5,15.5,4.4,23.8,4.3c6.4-0.1,13-2.7,16-7.8
						C382.2,36.1,381.2,35.6,380.9,36.2L380.9,36.2z"/>
					<path class="st1" d="M381,35.4c-10.3-0.2-19.8-5.8-24-14.1c-0.3,0.2-0.6,0.4-0.9,0.6c2.6,2.7,6.8,2.3,10.4,1.9
						c5-0.5,9.7,1.1,12.5,4.9c0.4,0.5,1.4,0,1-0.5c-2.2-2.9-5.6-4.9-9.5-5.4c-4.4-0.6-10.1,1.9-13.5-1.7c-0.4-0.5-1.1,0.1-0.9,0.6
						c4.4,8.6,14.3,14.4,25,14.6C381.8,36.4,381.8,35.4,381,35.4L381,35.4z"/>
					<path class="st1" d="M380.7,28.4c0.3-4.9,5.3-7.6,10.3-8.1c3.1-0.4,7.2,0.7,9.5-1.8c-0.3-0.1-0.6-0.2-1-0.3
						c0,7.5-3.5,17.2-13.7,17.5c-0.7,0-0.7,1,0,1c4.3-0.1,8.3-2.2,10.8-5.2c3.2-3.8,4-8.6,4-13.2c0-0.4-0.6-0.7-1-0.3
						c-1.5,1.7-4.1,1.4-6.2,1.4c-2.3,0-4.8,0.3-6.9,1.1c-3.8,1.5-6.8,4.4-7,8.2C379.6,29.1,380.7,29.1,380.7,28.4L380.7,28.4z"/>
					<path class="st1" d="M330.3,48.3c0.1,0.9,0.4,1.9,1.5,2.3c1.1,0.3,2-0.2,2.1-1.2c0.1-1-0.6-2.1-1.7-2.3c-1.2-0.2-2,0.9-1.8,1.9
						c0.2,0.9,1.1,1.6,2.1,1.6c1-0.1,1.7-0.9,1.6-1.8c-0.1-0.9-1.4-1.6-2.2-0.7c-0.5,0.6-0.7,2,0.5,2c0.2,0,0.5-0.1,0.5-0.4
						c0.1-0.5,0-1-0.5-1.3c-0.6-0.3-1.2,0.1-1.5,0.6c-0.1,0.2-0.1,0.5,0.1,0.6c0.5,0.3,1.3,0.3,1.6-0.2c0.3-0.6,0-1.2-0.6-1.6
						c-0.2-0.1-0.5-0.2-0.7-0.1c-0.5,0.3-0.8,0.8-0.6,1.4c0.2,0.6,1.2,0.4,1.1-0.3c0-0.1,0-0.2,0.1-0.2c-0.2,0-0.5-0.1-0.7-0.1
						c0.3,0,0.4,0,0.4,0.1l0.1,0.1c0,0.1,0.1,0.1,0.2,0.1c0,0.2,0.1,0.4,0.1,0.6c0.1-0.2,0.2-0.2,0.4-0.3c-0.2,0-0.4,0-0.6,0
						c0.1,0.1,0.1,0.1,0.1,0.2c0.2-0.1,0.4-0.2,0.5-0.4c0.2,0.1,0.2,0.2,0.2,0c0-0.1,0-0.1,0.1-0.2c0-0.2,0.1-0.3,0.2-0.1
						c0.2,0.2-0.1,0.6-0.3,0.7c-0.8,0.5-1.3-0.6-1.2-1.1c0.2-0.5,0.8-0.1,1,0.1c0.2,0.3,0.4,0.9,0.1,1.2c-0.2,0.2-0.6,0-0.8-0.1
						c-0.4-0.3-0.4-0.8-0.5-1.2C331.4,47.7,330.3,47.7,330.3,48.3L330.3,48.3z"/>
					<path class="st1" d="M308.2,50.1c5.5,4.6,12.4,7.6,19.9,8.7c6.8,1,15.4,0.7,20.5-3.9c0.5-0.4-0.3-1.1-0.8-0.7
						c-5,4.5-13.4,4.5-20,3.6c-7-1.1-13.7-4-18.8-8.4C308.5,49,307.7,49.7,308.2,50.1L308.2,50.1z"/>
				</g>
				<path class="st1" d="M267.9,87.8c4.4,8.9,9.3,17.5,14.8,25.9c0.2,0.3,0.8,0.3,1,0c2.4-3.5,4.8-6.9,7.2-10.4
					c-0.3,0.1-0.6,0.1-0.8,0.2c9.3,4,8.6,15.8,17.7,20.1c0.3,0.2,0.7,0,0.8-0.3c1-3.1,1.9-6.2,2.9-9.3c-0.3,0.1-0.6,0.1-0.9,0.2
					c5.2,5.8,10.3,11.5,15.5,17.3c0.4,0.4,1.1,0,0.9-0.5c-3.4-10.9-9-21.2-16.3-30.5c-0.2-0.3-0.9-0.3-1,0.1c-0.5,2.6-1.6,4.9-3.5,7
					c0.3,0,0.6,0.1,0.9,0.1c-4.5-5.9-9.1-11.8-13.6-17.7c-0.2-0.2-0.5-0.3-0.8-0.2c-3.1,1.9-5.5,4.4-7.2,7.4c0.3,0,0.6,0,1,0
					c-3.4-5.2-7.7-9.9-12.7-14c-0.2-0.1-0.5-0.2-0.7-0.1c-1.7,1.1-3.5,2.2-5.2,3.4c-0.6,0.4,0,1.2,0.6,0.9c1.7-1.1,3.5-2.2,5.2-3.4
					c-0.2,0-0.5-0.1-0.7-0.1c4.9,4,9.1,8.7,12.5,13.8c0.2,0.3,0.8,0.3,1,0c1.6-2.8,3.9-5.2,6.8-7c-0.3-0.1-0.5-0.1-0.8-0.2
					c4.5,5.9,9.1,11.8,13.6,17.7c0.2,0.2,0.6,0.4,0.9,0.1c2-2.2,3.2-4.6,3.8-7.4c-0.3,0-0.7,0.1-1,0.1c7.3,9.2,12.8,19.5,16.2,30.3
					c0.3-0.2,0.6-0.3,0.9-0.5c-5.3-5.8-10.4-11.5-15.6-17.3c-0.3-0.3-0.8-0.1-0.9,0.2c-1,3.1-1.9,6.2-2.9,9.3
					c0.3-0.1,0.5-0.2,0.8-0.3c-9-4.2-8.3-16-17.6-20.1c-0.3-0.1-0.6-0.1-0.8,0.2c-2.4,3.5-4.8,6.9-7.2,10.4c0.3,0,0.6,0,1,0
					c-5.5-8.4-10.4-17-14.8-25.9C268.6,86.7,267.7,87.2,267.9,87.8L267.9,87.8z"/>
				<g>
					<path class="st1" d="M142.5,35.7c-4.4-5-14.2-5.6-18.8-0.4c-2.3,2.7-3,6-2.3,9.3c0.9,3.9,4.2,6,7.8,8.1
						c4.1,2.4,8.3,4.1,13.3,3.4c4.6-0.7,9.3-3.3,12.4-6.3c3-3,3.2-6.6,1-10c-2.1-3.1-5.7-6-10-5.8c-1.6,0.1-3,0.7-4.1,1.7
						c-0.5,0.5,0.3,1.2,0.8,0.7c3.3-3.1,8-0.7,10.6,1.9c1.4,1.4,2.6,3,3.1,4.9c0.6,2.2-0.6,4.3-2.2,5.9c-2.6,2.8-6.8,4.8-10.6,5.8
						c-4.6,1.2-8.7-0.3-12.6-2.4c-3.4-1.8-6.7-3.7-8.1-7.2c-1.1-2.9-0.4-6.2,1.4-8.7c3.9-5.4,13.4-4.8,17.6-0.1
						C142.1,36.9,142.9,36.2,142.5,35.7L142.5,35.7z"/>
					<path class="st1" d="M141.6,36c1.3-1.1,1.4-2.6,1.5-4.1c0.1-2.1,0.8-4.2,1.8-6.2c1.9-3.9,5.5-7,9.8-8.9
						c0.6-0.3,0.1-1.1-0.6-0.9c-3.9,1.7-7,4.3-9.2,7.6c-1.1,1.7-1.9,3.5-2.4,5.4s0.1,5-1.7,6.4C140.3,35.7,141.1,36.4,141.6,36
						L141.6,36z"/>
					<path class="st1" d="M144.6,25.9c0.3-2.2,3.4-2.9,5.4-3.1s3.9,0.2,5.7,0.9c-0.1-0.2-0.2-0.4-0.3-0.6c-1,4.9-8.2,6.3-11.2,2
						c-0.4-0.5-1.4,0-1,0.5c3.5,5,12.1,3.6,13.3-2.2c0-0.2,0-0.5-0.3-0.6c-3.7-1.6-12-1.9-12.8,3C143.3,26.5,144.5,26.5,144.6,25.9
						L144.6,25.9z"/>
					<path class="st1" d="M144.5,26.3c3.2-0.9,6.4-1.6,9.8-2c0.7-0.1,0.7-1.1,0-1c-3.4,0.4-6.8,1.1-10.1,2
						C143.6,25.5,143.9,26.5,144.5,26.3L144.5,26.3z"/>
				</g>
				<g>
					<path class="st1" d="M115.6,78.9c-1.8-4.3-7.6-6.7-12.4-4.5c-4.4,2-5.2,7.8-2,10.9c0.1-0.3,0.3-0.6,0.4-0.8
						c-4,0.3-7.3,2.7-8.2,6.1c-1,3.4,1.2,7,4.5,8.6c0-0.3-0.1-0.5-0.1-0.8c-4,3-5.7,7.6-4.3,12.1c0.6,2.1,2.1,3.9,3.8,5.4
						c2.1,1.8,4.7,2.4,7.4,3.2c3,0.8,4.8,3,7.3,4.6c2.1,1.2,4.5,2,7,2.3c4.4,0.6,9.1-0.6,12-3.8c-0.3,0-0.6-0.1-0.9-0.1
						c2.2,3,6.2,4.1,10.1,3.7c2.1-0.2,4-1,5.8-1.9c2.2-1.2,3.8-3,5.8-4.3c1.1-0.7,3.5,0.3,4.7,0.6c1,0.2,2,0.2,3.1,0.3
						c2.2,0,4.6-0.4,6.6-1.2c4.1-1.6,7-4.5,8.7-8.2c0.8-1.8,1.1-3.7,1-5.6c0-1.6,0.1-2.8,1.2-4.1c0.8-1,1.6-1.9,2.2-3
						c1.9-3.5,1.9-7.5,0.6-11.1c-1.2-3.6-4.1-6.8-7.5-9c-1.7-1.1-3.6-2.1-5.6-2.8c-1.2-0.4-2-0.8-3-1.6c-0.8-0.7-1.7-1.2-2.6-1.7
						c-3.7-2.1-8.3-2.9-12.7-2.6c-2.2,0.2-4.2,0.8-6.2,1.6c-1,0.4-2.1-0.3-3.1-0.6c-1.2-0.4-2.5-0.7-3.9-0.9
						c-4.8-0.8-10-0.3-14.4,1.4c-3,1.2-9.5,4.2-7,8c0.4,0.5,1.3,0.1,1-0.5c-1.7-2.5,2.5-4.7,4.5-5.7c2.3-1.1,4.8-1.8,7.4-2.2
						c2.5-0.4,5.1-0.4,7.7-0.1c1.1,0.1,2.2,0.4,3.3,0.7c1.3,0.3,2.4,1,3.7,1.3c0.5,0.1,1.3-0.5,1.8-0.7c1-0.4,2.2-0.7,3.3-1
						c2.4-0.5,5-0.5,7.4-0.1c2.2,0.3,4.2,1,6.1,2c1.9,1,3.1,2.6,5.2,3.3c9.9,3.2,17.4,12.7,12.8,21.9c-0.9,1.8-2.7,3.2-3.4,5.2
						c-0.3,1-0.2,2.1-0.1,3.1c0,1.3-0.2,2.6-0.6,3.8c-1.5,4.7-5.9,8.1-11.2,9.3c-3.1,0.7-6,0.2-9.1-0.6c-2.5-0.6-4,1.3-5.7,2.6
						c-4.6,3.6-13.1,6-17.2,0.4c-0.2-0.2-0.6-0.4-0.9-0.1c-2.8,3-7.1,4-11.4,3.4c-2.1-0.3-4-0.9-5.8-1.9c-2.1-1.1-3.6-2.8-5.6-4
						s-4.6-1.4-6.8-2.3c-2.4-1-4.2-2.8-5.3-4.9c-2.5-4.3-0.8-9.7,3.3-12.8c0.3-0.2,0.2-0.6-0.1-0.8c-3-1.5-4.7-4.5-4-7.5
						c0.6-3,3.9-5.1,7.2-5.4c0.5,0,0.7-0.5,0.4-0.8c-2.8-2.8-1.7-7.4,1.8-9.3c3.9-2.1,9.3,0.4,10.7,3.9
						C114.7,79.7,115.8,79.5,115.6,78.9L115.6,78.9z"/>
					<path class="st1" d="M128.6,123.4c-0.6,8.2-3.6,16-8.9,22.7c-0.2,0.2,0,0.7,0.3,0.7c6.8,0.9,13.7,0.9,20.6,0
						c0.3,0,0.5-0.4,0.4-0.6c-1.2-3.2-2.3-6.4-3.2-9.6c-0.4-1.6-0.8-3.3-1.2-4.9c-0.4-2-1-4.2,0.1-6.1c0.3-0.6-0.7-1.1-1-0.5
						c-1.6,2.9-0.3,6.4,0.4,9.3c1,4.1,2.3,8.1,3.8,12c0.1-0.2,0.3-0.4,0.4-0.6c-6.6,0.9-13.3,0.9-20,0c0.1,0.2,0.2,0.5,0.3,0.7
						c5.4-6.9,8.5-14.9,9-23.2C129.8,122.8,128.6,122.8,128.6,123.4L128.6,123.4z"/>
					<path class="st1" d="M139.8,85.8c0.6-1.9,3.4-2.9,5.3-1.7c1.7,1.2,1.2,3.6-0.3,4.7c-0.5,0.4,0.1,1,0.7,0.8
						c2.4-1,5.6-1.8,8.2-0.7c3.4,1.5,0.5,5.6-0.9,7.3c-0.4,0.5,0.6,1,1,0.5c1.2-1.4,3.3-1.3,4.6-0.2c1.5,1.3,1.2,3.4,0.3,4.8
						c-1.7,2.9-5.9,3.9-9.3,3.3c-0.7-0.1-1,0.8-0.3,1c4.5,0.8,10.9-1.3,11.4-6c0.2-1.9-0.7-3.8-2.7-4.7c-1.8-0.8-3.9-0.1-5,1.3
						c0.3,0.2,0.6,0.3,1,0.5c1.6-2.1,4-5.7,1.4-8c-2.7-2.3-7.3-1.2-10.2,0c0.2,0.3,0.5,0.5,0.7,0.8c2.1-1.5,2.5-5.1-0.1-6.4
						c-2.6-1.3-5.9-0.1-6.7,2.4C138.5,86.1,139.6,86.4,139.8,85.8L139.8,85.8z"/>
					<path class="st1" d="M106.6,97c-2.5,1.2-2.9,3.8-1.8,6c0.7,1.4,2.2,2.3,3.6,3.1c0.9,0.4,0.6,0.9,0.7,1.8
						c0.1,0.7,0.4,1.3,0.7,1.9c3.1,6,12.8,3.7,13.5-2.4c0.1-0.6-1.1-0.6-1.1,0c-0.3,3.1-3.6,5.4-7.1,5c-3.2-0.5-5.2-3.5-4.8-6.2
						c0-0.2-0.1-0.4-0.3-0.4c-1.7-0.7-3.2-1.6-4.1-3.1c-1-1.6-0.3-3.7,1.4-4.6C107.8,97.6,107.2,96.7,106.6,97L106.6,97z"/>
				</g>
				<g>
					<path class="st1" d="M23,236.9c-3.5-4-3.8-9.1-2.4-13.8c1.6-5.1,5.4-9.1,9.9-12.3c4.5-3.3,9.8-5.7,14.9-8.1
						c6.1-2.9,12.3-5.9,18.4-8.8c-0.3-0.2-0.5-0.5-0.8-0.7c-3.3,5.5-4.8,11.6-5.9,17.7c-1.1,6.3-1.5,12.9-3.7,19
						c-2,5.7-6.4,9.9-13,11.6c-5.7,1.5-12.1,0.6-16.8-2.7c-0.6-0.4-1.4,0.3-0.8,0.7c9.1,6.4,23.4,4,29.4-4.7
						c3.9-5.8,4.3-13.1,5.3-19.6c1.1-7.4,2.5-14.8,6.5-21.5c0.3-0.4-0.3-0.9-0.8-0.7c-6.7,3.2-13.4,6.4-20.1,9.6
						c-5.5,2.6-11,5.4-15.7,9.2c-7.8,6.4-12.5,17.7-5.3,25.9C22.6,238.1,23.4,237.4,23,236.9L23,236.9z"/>
					<path class="st1" d="M24.1,239.5c3.4-9.7,10.3-18.3,19.7-24.2c0.6-0.4,0-1.2-0.6-0.9c-9.6,6.1-16.7,14.9-20.2,24.8
						C22.8,239.9,23.9,240.1,24.1,239.5L24.1,239.5z"/>
					<path class="st1" d="M21.9,238.5L21.9,238.5c0.4-0.1,0.6-0.4,0.5-0.6v-0.1c-0.1-0.2-0.3-0.4-0.5-0.4c-0.9,0.1-1.5,1-2,1.5
						c-1.3,1.2-2.6,2.6-3.7,3.9c-2.1,2.4-4,5-5.7,7.7c-0.1,0.2-0.1,0.5,0.2,0.7c0.6,0.3,1.8,1.2,2.6,0.8c1.3-0.6,1.7-2.4,2.4-3.4
						c1.1-1.6,2.5-3,3.8-4.4c1.4-1.5,2.7-3.4,4.9-4c0.7-0.2,0.4-1.1-0.3-1c-3,0.8-4.7,3.6-6.6,5.6c-1.1,1.2-2.1,2.4-3.1,3.7
						c-0.4,0.6-0.8,1.3-1.1,2c-0.4,0.9-1.4,0.1-2-0.2c0.1,0.2,0.1,0.5,0.2,0.7c1.5-2.3,3.1-4.6,4.8-6.7c1-1.2,2-2.3,3.1-3.4
						c0.4-0.4,0.9-0.9,1.3-1.3C20.9,239.4,22,238.4,21.9,238.5c-0.2-0.2-0.4-0.3-0.5-0.5v0.1c0.1-0.2,0.3-0.4,0.4-0.6h-0.1
						C20.9,237.7,21.2,238.7,21.9,238.5L21.9,238.5z"/>
				</g>
				<path class="st1" d="M42.8,26.7c-3.8-0.5-7.7,0.1-11.3,1.2c-4.1,1.2-6.9,3.5-9.5,6.3c-6,6.4-9.1,14.8-8.6,23
					c0.5,7.9,4.5,15.7,11.3,20.9c7.5,5.7,18,7.7,27.7,7.1c7.2-0.5,13.7-3.5,17.2-9.2c0.3-0.5-0.4-1-0.9-0.6c-2.2,2.2-6,1-8.7,0.2
					c-3.2-0.9-6.2-2.2-9.1-3.6c-5.6-2.9-10.3-7-13.4-12c-3.4-5.5-3.9-11.6-2.7-17.7c0.6-2.9,1.5-5.8,2.5-8.6c0.9-2.5,2.4-5.1,5.4-6
					c0.7-0.2,0.4-1.2-0.3-1c-2.7,0.8-4.2,2.7-5.4,4.9c-1.6,3.1-2.5,6.5-3.2,9.8C32.3,48,33,54.5,36.5,60.5
					c3.4,5.7,9.1,10.1,15.4,13.2c3.1,1.5,6.5,2.7,10,3.5c2.5,0.6,5.6,0.8,7.4-1.1c-0.3-0.2-0.6-0.4-0.9-0.6
					c-5.8,9.3-18.6,10-29.2,7.9c-10.4-2.1-18.8-8.2-22.7-17c-3.7-8.4-2.7-17.9,1.9-25.8c2.2-3.7,5.4-7.9,9.4-10.2
					c3.5-2,8.4-2.8,12.6-2.8c0.6,0,1.3,0,1.9,0.1C43.2,27.7,43.5,26.7,42.8,26.7L42.8,26.7z"/>
				<g>
					<path class="st1" d="M318.3,176c-4.8,5.9-4.2,14.3,1.2,19.7c3.1,3.2,7.8,4.8,12.3,5.8c4.6,1,9.6,1.2,14.1-0.4
						c7.5-2.8,10-11,7.7-17.4c-2.6-7.4-11.3-13.1-19.6-14.8c-7.3-1.5-12.1,3.3-16,8c-0.4,0.5,0.5,1,1,0.5c2.7-3.3,5.7-6.8,10.5-7.7
						c5.1-1,10.9,2.1,14.8,4.6c7.5,4.8,11.8,13.6,7,21.3c-5.3,8.3-19.1,6.3-26.9,2.3c-8.4-4.3-10.8-14.4-5.1-21.4
						C319.7,176,318.7,175.5,318.3,176L318.3,176z"/>
					<path class="st1" d="M319,175.1c-6-7.9-12.5-15.5-19.5-22.8c-0.5-0.5-1.3,0.2-0.8,0.7c6.9,7.2,13.3,14.8,19.3,22.6
						C318.4,176.1,319.4,175.6,319,175.1L319,175.1z"/>
					<path class="st1" d="M315,187.3c-10.8,0.1-21.6,0.2-32.5,0.3c-0.7,0-0.7,1,0,1c10.8-0.1,21.6-0.2,32.5-0.3
						C315.7,188.3,315.7,187.3,315,187.3L315,187.3z"/>
					<path class="st1" d="M334.3,169.2c-1-8.3-1.4-16.7-1.2-25c0-0.6-1.1-0.6-1.1,0c-0.2,8.4,0.2,16.7,1.2,25
						C333.2,169.9,334.4,169.9,334.3,169.2L334.3,169.2z"/>
					<path class="st1" d="M344.2,174.1c5.5-7.9,11.8-15.4,18.5-22.6c0.5-0.5-0.3-1.2-0.8-0.7c-6.7,7.3-13.1,14.8-18.6,22.8
						C342.8,174.1,343.8,174.6,344.2,174.1L344.2,174.1z"/>
					<path class="st1" d="M353.3,190c11-2,22.2-3.2,33.4-3.6c0.7,0,0.7-1,0-1c-11.3,0.4-22.6,1.6-33.7,3.7
						C352.3,189.2,352.6,190.1,353.3,190L353.3,190z"/>
					<path class="st1" d="M319.7,197.1c-5.5,5.4-10.9,10.8-16.4,16.2c-0.5,0.5,0.3,1.2,0.8,0.7c5.5-5.4,10.9-10.8,16.4-16.2
						C321,197.3,320.2,196.6,319.7,197.1L319.7,197.1z"/>
					<path class="st1" d="M334.4,203.2c0.3,6.6,0.5,13.2,0.8,19.8c0,0.6,1.1,0.6,1.1,0c-0.3-6.6-0.5-13.2-0.8-19.8
						C335.5,202.5,334.4,202.5,334.4,203.2L334.4,203.2z"/>
					<path class="st1" d="M347.5,200.7c6.8,3.8,13.3,7.9,19.7,12.2c0.6,0.4,1.1-0.5,0.6-0.9c-6.4-4.3-12.9-8.4-19.7-12.2
						C347.5,199.5,346.9,200.3,347.5,200.7L347.5,200.7z"/>
				</g>
				<path class="st1" d="M172.8,152.1c-2.5,1.8-2,5.3,0.7,6.7c3,1.5,6.7-0.7,7.4-3.4c0.9-3.4-2.3-6.2-5.8-6.7
					c-4-0.6-7.6,1.8-9.5,4.7c-2.1,3.2-1.7,7.1,1.8,9.2c3.2,1.9,7.9,1.9,11.5,0.9c3.7-1,6.5-3.6,7.3-7c0.9-3.8-1.2-7.7-4.2-10.3
					c-3-2.6-7.5-4.2-11.7-4.3c-4.5,0-8.2,3.2-10.4,6.4c-4.7,6.6-2.8,15.8,5.1,19.8c7.8,3.9,18.5,0.5,24-5.1
					c6.4-6.5,3.8-15.1-1.7-21.3c-0.4-0.5-1.2,0.2-0.8,0.7c3.5,3.9,6,8.8,5,13.9c-0.8,4.3-4.4,7.6-8.5,9.8
					c-4.5,2.4-10.3,3.2-15.3,1.9c-5.1-1.4-8.5-5.8-9.1-10.3c-0.7-4.9,2.2-10.1,6.6-13.1c4.9-3.3,11.5-1.2,15.7,1.9
					c4.4,3.2,6.3,9.2,2.5,13.3c-2.9,3.2-8.4,3.8-12.7,2.8c-2.1-0.5-4-1.5-4.9-3.3c-0.8-1.6-0.2-3.5,0.6-5.1c1.6-3.1,5.2-5.2,9-4.6
					c4.1,0.6,6.4,5.6,2.7,7.9c-3.7,2.3-8-2.3-4.4-4.8C174.1,152.4,173.3,151.7,172.8,152.1L172.8,152.1z"/>
				<path class="st1" d="M269.3,158.9c-1.6-2-3.8-3.3-6.6-3.8c-2-0.3-5.2,0-5.9,2c-1.9,4.9,6.6,8.3,10.8,8.8
					c0.7,0.1,2.4,0.5,2.9-0.1c1.3-1.6,2.6-3.1,3.8-4.7c1.4-1.7,4.7-4.3,2.5-6.4c-2.9-2.8-8.5-1.7-10,1.8c-0.3,0.6,0.8,0.9,1.1,0.3
					c1.2-2.7,5.5-3.5,7.8-1.6c1.8,1.5-1.4,4.2-2.4,5.5c-0.7,0.9-1.4,1.7-2.1,2.6c-0.7,0.8-1.1,1.9-2.4,1.8c-4.1-0.2-9.4-2.2-11-5.8
					c-1.3-3,2.9-3.4,5.1-3.1c2.2,0.3,4.1,1.6,5.4,3.2C268.8,159.9,269.8,159.5,269.3,158.9L269.3,158.9z"/>
				<path class="st1" d="M96,223.6c-5.4-1.5-13.3-0.4-15.5,5c-1.7,4.3,0.9,9.9,6.4,10.4c0.6,0.1,0.8-0.9,0.1-1
					c-3.6-0.6-7.5,1.3-8.7,4.4c-1.4,3.4-0.1,7.2,2.8,9.7c5,4.5,14.4,3.8,18.7-1c-0.3,0-0.6-0.1-0.9-0.1c4.4,5.5,10.4,11,18.7,9.8
					c7.9-1.1,12.5-8.4,10.4-15c-0.3,0.1-0.7,0.3-1,0.4c2.6,3.2,6.8,5,11.3,4.9s8.3-2.6,10.4-6.1c4.6-7.8-3.1-17-12.8-16
					c0.1,0.3,0.2,0.6,0.3,0.9c2.8-1.1,4.4-3.9,4-6.6c-0.6-3.4-3.6-6-6.9-7.5c-6.7-3.2-15.5-2.1-21.2,2.3c0.3,0.1,0.6,0.1,0.9,0.2
					c-1.4-4.4-6.8-7.1-11.8-5.9c-5,1.2-7.7,6.5-6.1,10.7c0.2,0.6,1.3,0.3,1.1-0.3c-1.4-3.8,1-8.2,5.4-9.5c4.3-1.3,9.3,1.5,10.5,5.2
					c0.1,0.4,0.6,0.5,0.9,0.2c4.8-3.7,11.5-4.7,17.5-3c3.2,0.9,6.1,2.7,7.8,5.2c1.9,2.8,1.1,6.7-2.5,8.1c-0.5,0.2-0.3,1,0.3,0.9
					c4.1-0.4,7.9,1.1,10.6,3.8c2.8,2.9,3.1,6.9,1.4,10.3c-3.5,7.2-14.9,7.9-19.9,1.6c-0.4-0.4-1.2-0.2-1,0.4
					c2.1,6.6-2.9,13.2-10.6,13.9c-7.2,0.7-12.7-4.8-16.4-9.5c-0.2-0.2-0.6-0.4-0.9-0.1c-3.7,4.1-10.5,4.8-15.5,2.2
					c-3-1.6-4.7-4.6-4.7-7.7c0-3.6,3.8-6.6,7.8-6c0-0.3,0.1-0.6,0.1-1c-5-0.5-7.1-6.1-5-9.7c2.4-4.3,9.2-5.1,13.8-3.7
					C96.4,224.7,96.7,223.8,96,223.6L96,223.6z"/>
				<g>
					<path class="st1" d="M228.5,256.4c-0.4,0.3-0.8,0.6-1.1,1c-0.4,0.3,0,1,0.5,0.8c19-6.8,38.2-13.2,57.4-19.2
						c0.7-0.2,0.4-1.2-0.3-1c-19.3,6.1-38.4,12.5-57.4,19.2c0.2,0.3,0.4,0.6,0.5,0.8c0.4-0.3,0.8-0.6,1.1-1
						C229.8,256.6,229,255.9,228.5,256.4L228.5,256.4z"/>
					<path class="st1" d="M226.2,259c1.3,7.4,6.9,13.9,14.8,16.7c5.1,1.8,10.8,2.8,16.2,3.5c5,0.6,10,0.6,14.9-0.6
						c4.1-1.1,7.8-3.1,10.5-6.1c2.8-3.1,3.8-7.1,4.3-11c0.7-4.9,0.8-9.9,0.8-14.8c0-3,0.3-7-3.1-8.8c-0.6-0.3-1.2,0.5-0.6,0.9
						c3.6,1.9,2.5,7.4,2.5,10.5c-0.1,4.1-0.3,8.2-0.8,12.2s-1.7,7.9-4.7,11c-2.6,2.7-6.5,4.4-10.4,5.3c-4.7,1.1-9.8,0.8-14.6,0.2
						c-4.6-0.6-9.2-1.5-13.5-2.9c-8.1-2.5-14-8.9-15.3-16.4C227.2,258.1,226.1,258.4,226.2,259L226.2,259z"/>
					<path class="st1" d="M281,240.8c0,3,0,5.9,0,8.9s-0.3,6-1.7,8.8c-2.3,4.4-7,7.7-12.1,9.2c-6.1,1.8-13.5,0.8-19.6-0.8
						c-6.2-1.6-12-5.3-14.1-10.8c-0.2-0.6-1.3-0.3-1.1,0.3c2,5.2,6.9,8.7,12.5,10.7c3.2,1.2,6.7,1.7,10.2,2.1
						c3.8,0.4,7.7,0.5,11.4-0.3c5.6-1.2,10.5-4.7,13.3-9.1c1.5-2.4,2.1-5,2.3-7.7c0.3-3.7,0.1-7.5,0.1-11.3
						C282.1,240.1,281,240.1,281,240.8L281,240.8z"/>
					<path class="st1" d="M243.6,261.3c0.9-0.2,1.9-0.4,2.8-0.7c0.5-0.1,0.5-0.7,0.1-0.9c-1-0.6-2.1-0.8-3.3-0.5
						c-0.7,0.2-0.4,1.1,0.3,1c0.9-0.2,1.7-0.1,2.4,0.4c0-0.3,0.1-0.6,0.1-0.9c-0.9,0.2-1.9,0.4-2.8,0.7
						C242.6,260.5,242.9,261.5,243.6,261.3L243.6,261.3z"/>
					<path class="st1" d="M252.9,265.1c0.7,0,1.5,0,2.2,0c0.4,0,0.7-0.4,0.5-0.7c-0.7-1-2.1-1.5-3.4-1.2c-0.7,0.2-0.4,1.1,0.3,1
						c0.8-0.2,1.7,0.1,2.1,0.7c0.2-0.2,0.3-0.5,0.5-0.7c-0.7,0-1.5,0-2.2,0C252.2,264.1,252.2,265.1,252.9,265.1L252.9,265.1z"/>
					<path class="st1" d="M270.5,259.8c0.7-0.2,1.5-0.4,2.2-0.6c0.6-0.2,0.5-1-0.1-1s-1.1,0-1.7,0c-0.7,0-0.7,1,0,1
						c0.6,0,1.1,0,1.7,0c0-0.3-0.1-0.6-0.1-1c-0.7,0.2-1.5,0.4-2.2,0.6C269.5,259,269.8,260,270.5,259.8L270.5,259.8z"/>
					<path class="st1" d="M261.5,255.8c0.7-0.2,1.5-0.4,2.2-0.6c0.2-0.1,0.4-0.3,0.4-0.5c-0.1-0.9-1.3-1.3-2-0.7
						c-0.5,0.4,0.3,1.1,0.8,0.7c0,0,0.1,0.1,0.1,0c0.1-0.2,0.3-0.3,0.4-0.5c-0.7,0.2-1.5,0.4-2.2,0.6
						C260.6,255.1,260.8,256,261.5,255.8L261.5,255.8z"/>
					<path class="st1" d="M270.3,249.8c0.6-0.1,1.1-0.1,1.7-0.2c0.3,0,0.6-0.2,0.6-0.5c0-0.2-0.3-0.5-0.6-0.5
						c-0.6,0.1-1.1,0.1-1.7,0.2c-0.3,0-0.6,0.2-0.6,0.5S270,249.8,270.3,249.8L270.3,249.8z"/>
				</g>
				<path class="st1" d="M296.2,11c-1.6,4.7-5.1,8.9-5.2,14c-0.1,3.4,2.6,7.2,6.8,7.5c4.2,0.3,6.5-3,6.7-6.3c0.1-2.4-1.1-4.8-2.1-7
					c-1.2-2.7-2.3-5.4-3.5-8c-0.3-0.6-1.3-0.3-1.1,0.3c1.6,3.6,3.3,7.2,4.7,10.8c0.8,2,1.1,4.1,0.4,6.1c-0.7,2.1-3,3.4-5.4,3.1
					c-4.9-0.7-5.8-5.6-5-9.2c0.9-3.9,3.5-7.3,4.8-11C297.4,10.7,296.4,10.4,296.2,11L296.2,11z"/>
				<path class="st1" d="M149,195.5c-1,2.4-2,4.9-3,7.3c-0.9,2.1-1.7,4.3-1.9,6.6c-0.2,3.2,2.4,6.6,6.3,6.5c4-0.1,5.7-4.4,5.4-7.3
					c-0.6-4.7-5-8.2-5.3-13c0-0.6-1.2-0.6-1.1,0c0.2,3.1,2,5.8,3.5,8.5c1.9,3.3,3.3,7.9-0.9,10.3c-2.1,1.2-4.4,0.1-5.7-1.5
					c-1.3-1.7-1.2-3.8-0.7-5.7c0.9-3.9,3-7.7,4.5-11.4C150.3,195.2,149.3,194.9,149,195.5L149,195.5z"/>
				<g>
					<path class="st1" d="M385.9,252.2c-10-3.8-20.8-5.5-31.6-5.1c-8.2,0.3-20.8,1.3-24.3,9.3c-1.4,3.2-1,6.7,1.8,9.2
						c3.1,2.6,8.3,3.2,12.3,3.7c10.6,1.2,21.4-0.2,31.2-3.9c4.9-1.9,10.1-4.8,11.2-9.8c0.1-0.6-0.9-0.9-1.1-0.3
						c-1,4.2-5.1,6.8-9.2,8.5c-4.8,2.1-10.1,3.4-15.3,4.2c-5.4,0.8-10.9,0.8-16.3,0.3c-4.9-0.5-11.9-1.3-14-5.8
						c-2-4.2,1.5-8.7,5.5-10.8c4.6-2.5,10.7-3.1,16-3.4c11.3-0.8,22.7,1,33.1,4.9C386,253.3,386.6,252.5,385.9,252.2L385.9,252.2z"
						/>
					<path class="st1" d="M337,258.7c0.2,0,0.5,0,0.7,0c0.7,0,0.7-1,0-1c-0.2,0-0.5,0-0.7,0C336.3,257.7,336.3,258.7,337,258.7
						L337,258.7z"/>
					<path class="st1" d="M349.8,249.9c2.7,5,2.8,10.8,0.2,15.9c0.3,0.1,0.7,0.3,1,0.4c2.1-5.7,2.2-11.7,0.4-17.5
						c-0.2-0.6-1.3-0.4-1.1,0.3c1.8,5.6,1.6,11.4-0.4,17c-0.2,0.5,0.8,0.9,1,0.4c2.8-5.4,2.8-11.5-0.2-16.9
						C350.4,248.9,349.5,249.4,349.8,249.9L349.8,249.9z"/>
					<path class="st1" d="M349.8,248.3c0.2,6.9,0.4,14-1.7,20.7c-0.2,0.5,0.8,0.9,1,0.4c3.1-6,3.9-12.7,2.1-19.2
						c-0.2-0.6-1.2-0.4-1.1,0.3c1.7,6.2,1,12.6-2,18.4c0.3,0.1,0.7,0.3,1,0.4c2.1-6.9,1.9-13.9,1.7-21
						C350.9,247.6,349.8,247.6,349.8,248.3L349.8,248.3z"/>
					<path class="st1" d="M349.5,248.5c2.2,6.1,2.1,12.6-0.3,18.7c-0.2,0.5,0.7,0.9,1,0.4c3.6-5.5,4.3-12.1,2.1-18.1
						c-0.2-0.6-1.3-0.3-1.1,0.3c2.4,6.9,2.8,14.7-1.7,21c-0.3,0.5,0.5,1,0.9,0.6c4.2-4.7,5.9-10.7,4.8-16.6
						c-0.1-0.6-1.2-0.4-1.1,0.3c1,5.5-0.6,11.2-4.5,15.6c0.3,0.2,0.6,0.4,0.9,0.6c4.7-6.5,4.4-14.6,1.8-21.7
						c-0.4,0.1-0.7,0.2-1.1,0.3c2.1,5.8,1.4,12.1-2,17.4c0.3,0.1,0.7,0.3,1,0.4c2.5-6.2,2.6-13,0.3-19.3
						C350.4,247.7,349.3,247.9,349.5,248.5L349.5,248.5z"/>
					<path class="st1" d="M353,250.4c2.5,5.9,2.5,12.3,0,18.2c0.4,0.1,0.7,0.2,1.1,0.3c2.4-6.3,2.4-13.1,0-19.3
						c-0.3,0.1-0.7,0.3-1,0.4c3.4,5.1,3.9,11.3,1.4,16.8c0.4,0.1,0.7,0.2,1.1,0.3c2.1-6.1,4.2-12.9,0.6-18.9c-0.3-0.5-1.2-0.2-1,0.4
						c1.6,4.7,2.1,9.5,1.5,14.4c-0.1,0.6,1.1,0.6,1.1,0c0.5-5,0-9.9-1.6-14.6c-0.3,0.1-0.7,0.3-1,0.4c3.4,5.7,1.3,12.3-0.7,18.2
						c-0.2,0.6,0.8,0.8,1.1,0.3c2.6-5.7,2-12.2-1.5-17.5c-0.3-0.5-1.2-0.2-1,0.4c2.4,6.1,2.3,12.7,0,18.8c-0.2,0.6,0.8,0.8,1.1,0.3
						c2.6-6,2.6-12.7,0-18.8C353.8,249.5,352.7,249.8,353,250.4L353,250.4z"/>
					<path class="st1" d="M366,249.7c2.8,5.1,3.3,10.8,1.4,16.2c-0.2,0.6,0.8,0.9,1.1,0.3c2.2-5.8,2.9-11.8,1.9-17.8
						c-0.4,0.1-0.7,0.2-1.1,0.3c1.3,5.3,2.6,11.4-1.3,16.1c0.3,0.1,0.7,0.3,1,0.4c1.9-4.7,2.8-9.6,2.7-14.7c-0.4,0-0.7,0.1-1.1,0.1
						c1.5,5.4,1.2,11-1,16.3c0.4,0,0.7,0.1,1.1,0.1c0.7-5.5,1.4-11,2-16.5c-0.3,0.1-0.7,0.2-1,0.2c2.1,3.4,2.5,7.2,1.1,10.9
						c-0.2,0.6,0.9,0.9,1.1,0.3c1.4-3.9,1-8.1-1.3-11.7c-0.3-0.5-1-0.2-1,0.2c-0.7,5.5-1.4,11-2,16.5c-0.1,0.6,0.9,0.6,1.1,0.1
						c2.2-5.4,2.5-11.2,1-16.8c-0.2-0.5-1.1-0.4-1.1,0.1c0.1,4.9-0.7,9.8-2.6,14.4c-0.2,0.6,0.7,0.8,1,0.4
						c4.1-4.9,2.8-11.3,1.4-16.8c-0.2-0.6-1.2-0.3-1.1,0.3c0.9,5.8,0.3,11.7-1.9,17.3c0.4,0.1,0.7,0.2,1.1,0.3
						c1.9-5.6,1.3-11.6-1.6-16.9C366.7,248.6,365.7,249.1,366,249.7L366,249.7z"/>
					<path class="st1" d="M352.8,248.9c-2.8-5.6-3.9-11.6-3.4-17.6c0.1-1.3,0.5-2.5,1.4-3.6c1.6-1.8,3.2,0.3,3.9,1.6
						c1.6,2.9,2.4,6,2.6,9.2c0.4,0,0.7-0.1,1.1-0.1c-0.5-3.2,2.3-5.5,5.2-6.9c1.4-0.7,2.9-1.3,4.4-1.7c2.1-0.6,3.2,1.5,3.6,2.9
						c1.6,5.2-0.9,11.3-4.6,15.3c-0.5,0.5,0.3,1.2,0.8,0.7c2.5-2.7,4.2-5.8,4.9-9.3c0.6-2.9,0.8-6.9-1.3-9.4c-2.3-2.7-6.5-0.2-8.9,1
						c-3.2,1.6-5.7,4.3-5.2,7.7c0.1,0.6,1.1,0.4,1.1-0.1c-0.2-3.7-1.3-7.3-3.3-10.6c-1.4-2.4-4.2-2.3-5.7-0.1c-2,2.7-1.4,7-1.1,10
						c0.4,4,1.6,7.9,3.5,11.6C352.2,249.9,353.1,249.4,352.8,248.9L352.8,248.9z"/>
					<path class="st1" d="M344.1,247.4c-1.7-2.5-2.8-5.2-3.4-8.1c-0.4-1.6-0.8-4.3,1.8-4.6c1.6-0.1,3.2,0.9,4.4,1.6
						c0.6,0.4,1.1-0.5,0.6-0.9c-2-1.3-7.1-3.3-8,0.2c-0.5,1.8,0.1,3.8,0.6,5.5c0.7,2.3,1.8,4.6,3.1,6.6
						C343.5,248.5,344.5,248,344.1,247.4L344.1,247.4z"/>
				</g>
				<g>
					<path class="st1" d="M184.4,267.9c5.3-4.3,7.2-11.1,5.3-17.2c-2.2-7.2-10.1-11-17.5-13.2c-0.2-0.1-0.5,0-0.6,0.2
						c-3.8,6.4-4.8,13.7-3.1,20.8c1.3,5.2,5.4,14.2,13.1,12.8c0.3,0,0.4-0.3,0.4-0.5c1-11-2.1-22.1-8.7-31.5c-0.4-0.5-1.3,0-1,0.5
						c6.5,9.2,9.5,20.1,8.6,31c0.1-0.2,0.3-0.3,0.4-0.5c-3.9,0.7-6.8-2.1-8.6-4.8c-1.8-2.7-2.8-5.9-3.5-8.9
						c-1.2-6.2,0-12.8,3.3-18.4c-0.2,0.1-0.4,0.2-0.6,0.2c7.1,2.1,14.2,5.5,16.6,12.1c2.1,5.8,0.2,12.5-4.9,16.6
						C183.1,267.6,183.9,268.3,184.4,267.9L184.4,267.9z"/>
					<path class="st1" d="M180.5,259.1c1.6-1.9,3.3-3.6,5.3-5.1c0.5-0.4-0.1-1-0.7-0.8c-1.7,0.8-3.2,1.8-4.6,3
						c-0.4,0.4,0.1,1.1,0.7,0.8c2.2-1.3,4.4-2.7,6.7-4c0.6-0.4,0-1.2-0.6-0.9c-2.2,1.3-4.4,2.7-6.7,4c0.2,0.3,0.5,0.5,0.7,0.8
						c1.3-1.2,2.8-2.1,4.4-2.9c-0.2-0.3-0.5-0.5-0.7-0.8c-2.1,1.6-3.9,3.4-5.5,5.3C179.1,259.1,180.1,259.6,180.5,259.1L180.5,259.1
						z"/>
					<path class="st1" d="M177.7,248.3c0.8-1.9,1.7-3.7,2.5-5.6c0.2-0.5-0.7-0.9-1-0.4c-1,1.6-2,3.1-2.9,4.7c-0.3,0.5,0.4,1,0.9,0.6
						c1.7-1.6,3-3.4,4.1-5.3c0.3-0.6-0.7-1.1-1-0.5c-1,1.9-2.3,3.6-3.9,5.1c0.3,0.2,0.6,0.4,0.9,0.6c1-1.6,2-3.1,2.9-4.7
						c-0.3-0.1-0.7-0.3-1-0.4c-0.8,1.9-1.7,3.7-2.5,5.6C176.3,248.7,177.4,248.9,177.7,248.3L177.7,248.3z"/>
					<path class="st1" d="M177.7,252.3c-3.5-0.6-7.1-1.1-10.6-1.7c-0.7-0.1-1,0.7-0.3,1c3.1,1,6.3,1.6,9.7,1.6c0.6,0,0.8-0.9,0.1-1
						c-2.6-0.4-5.2-0.8-7.8-1.1c-0.7-0.1-1,0.8-0.3,1c2.6,0.4,5.2,0.8,7.8,1.1c0-0.3,0.1-0.6,0.1-1c-3.2-0.1-6.3-0.6-9.4-1.6
						c-0.1,0.3-0.2,0.6-0.3,1c3.5,0.6,7.1,1.1,10.6,1.7C178.1,253.3,178.4,252.4,177.7,252.3L177.7,252.3z"/>
					<path class="st1" d="M179.9,263.7c-4.3-0.6-8.6-1.2-12.8-1.8c-0.7-0.1-1,0.8-0.3,1c3.4,0.8,6.8,1.3,10.2,1.5
						c0.7,0.1,0.7-0.9,0-1c-3.4-0.2-6.7-0.7-9.9-1.5c-0.1,0.3-0.2,0.6-0.3,1c4.3,0.6,8.6,1.2,12.8,1.8
						C180.3,264.8,180.6,263.8,179.9,263.7L179.9,263.7z"/>
					<path class="st1" d="M182.1,271.5c0.6-1.3,1.5-2.4,2.7-3.3c0.2-0.2,0.2-0.5,0-0.7c-0.9-0.9-2.8-0.4-3,0.8
						c-0.1,0.6,1,0.9,1.1,0.3c0.1-0.5,0.7-0.7,1.1-0.3c0-0.2,0-0.5,0-0.7c-1.3,1-2.3,2.3-3,3.7C180.7,271.8,181.8,272.1,182.1,271.5
						L182.1,271.5z"/>
					<path class="st1" d="M182,271.5c0.2-0.8,0-1.4-0.7-2c0,0.2,0.1,0.4,0.1,0.6c1.3-1.6,2.8-3,4.4-4.3c0.5-0.4-0.3-1.1-0.8-0.7
						c-1.7,1.4-3.3,2.9-4.6,4.5c-0.1,0.2-0.1,0.5,0.1,0.6c0.4,0.2,0.5,0.6,0.4,1C180.7,271.8,181.8,272.1,182,271.5L182,271.5z"/>
				</g>
			</g>
		</g>
		<g>
			<defs>
				<rect id="SVGID_7_" x="0" y="0" width="414.1" height="276.7"/>
			</defs>
			<clipPath id="SVGID_8_">
				<use xlink:href="#SVGID_7_"  style="overflow:visible;"/>
			</clipPath>
			<g class="st4">
				<g>
					<path class="st1" d="M-17.8,114.1c6.5-2.5,13.1-4.7,19.9-6.4c0.7-0.2,0.4-1.1-0.3-1c-6.9,1.7-13.6,3.9-20.2,6.5
						C-19,113.5-18.4,114.4-17.8,114.1L-17.8,114.1z"/>
					<path class="st1" d="M0.3,106.1c0.3,1,0.6,2,0.9,3c0.1,0.4,0.6,0.5,0.9,0.2c0.9-0.8,2-1.5,3.2-2c0.5-0.2,0.3-0.8-0.1-0.9
						c-1-0.3-2-0.6-3-0.9c-0.7-0.2-1,0.7-0.3,1c1,0.3,2,0.6,3,0.9c0-0.3-0.1-0.6-0.1-0.9c-1.2,0.6-2.4,1.3-3.4,2.2
						c0.3,0.1,0.6,0.1,0.9,0.2c-0.3-1-0.6-2-0.9-3C1.2,105.3,0.1,105.5,0.3,106.1L0.3,106.1z"/>
				</g>
			</g>
		</g>
		<g>
			<defs>
				<rect id="SVGID_9_" x="0" y="0" width="414.1" height="276.7"/>
			</defs>
			<clipPath id="SVGID_10_">
				<use xlink:href="#SVGID_9_"  style="overflow:visible;"/>
			</clipPath>
			<g class="st5">
				<g>
					<path class="st1" d="M226.2-17.6c1.3,7.4,6.9,13.9,14.8,16.7c5.1,1.8,10.8,2.8,16.2,3.5c5,0.6,10,0.6,14.9-0.6
						c4.1-1.1,7.8-3.1,10.5-6.1c2.8-3.1,3.8-7.1,4.3-11c0.7-4.9,0.8-9.9,0.8-14.8c0-3,0.3-7-3.1-8.8c-0.6-0.3-1.2,0.5-0.6,0.9
						c3.6,1.9,2.5,7.4,2.5,10.5c-0.1,4.1-0.3,8.2-0.8,12.2s-1.7,7.9-4.7,11c-2.6,2.7-6.5,4.4-10.4,5.3c-4.7,1.1-9.8,0.8-14.6,0.2
						c-4.6-0.6-9.2-1.5-13.5-2.9c-8.1-2.5-14-8.9-15.3-16.4C227.2-18.5,226.1-18.2,226.2-17.6L226.2-17.6z"/>
				</g>
			</g>
		</g>
	</g>
</g>
</svg>
