<?xml version="1.0" encoding="utf-8"?>
<!-- Generator: Adobe Illustrator 24.1.1, SVG Export Plug-In . SVG Version: 6.00 Build 0)  -->
<svg version="1.1" id="Layer_1" xmlns="http://www.w3.org/2000/svg" xmlns:xlink="http://www.w3.org/1999/xlink" x="0px" y="0px"
	 viewBox="0 0 70 70" style="enable-background:new 0 0 70 70;" xml:space="preserve">
<style type="text/css">
	.st0{fill:url(#SVGID_1_);}
	.st1{fill:url(#SVGID_2_);}
</style>
<linearGradient id="SVGID_1_" gradientUnits="userSpaceOnUse" x1="5.3288" y1="-2.5656" x2="71.9955" y2="69.1381">
	<stop  offset="0" style="stop-color:#524FA2"/>
	<stop  offset="1" style="stop-color:#EC008C"/>
</linearGradient>
<path class="st0" d="M54.5,28.5c0,2.4-0.8,5-2.4,7.7c-0.2,0.3-0.4,0.4-0.7,0.4c-0.1,0-0.3,0-0.4-0.1c-0.4-0.2-0.5-0.7-0.3-1.1
	c1.5-2.5,2.2-4.8,2.2-6.9c0-5.1-4.3-9.8-9-9.8c-3.8,0-5.8,1.5-7.6,3.2l-7,6.9c-1,1-1.1,2.4-0.4,3.5c0.5,0.6,1.1,1,1.9,1.1
	c0.8,0.1,1.5-0.2,2-0.7l7.2-7.2c0.3-0.3,0.8-0.3,1.2,0c0.3,0.3,0.3,0.8,0,1.2l-2.3,2.3l8.7,7.6c1.6,1.4,2,3.7,0.9,5.4
	c-0.6,1-1.7,1.7-2.9,1.9c-0.4,0.1-0.8,0.1-1.1,0c0.2,1,0.1,2.1-0.5,2.9c-0.6,1-1.7,1.7-2.9,1.9c-0.6,0.1-1.1,0-1.7-0.1
	c0.1,0.8-0.1,1.7-0.6,2.4c-0.6,1-1.7,1.7-2.9,1.9c-0.2,0-0.4,0-0.6,0c-1,0-1.9-0.4-2.7-1l-5.3-4.7c-8-7.3-11.9-13.4-11.9-18.7
	c0-6.1,4.9-11.4,10.6-11.4c1.9,0,3.8,0.6,5.5,1.8c0.4,0.3,0.5,0.8,0.2,1.1c-0.3,0.4-0.8,0.5-1.1,0.2c-1.4-1-3-1.5-4.5-1.5
	c-4.7,0-9,4.7-9,9.8c0,4.7,3.8,10.6,11.4,17.4l5.3,4.7c0.5,0.5,1.3,0.7,2,0.6c0.7-0.1,1.4-0.5,1.7-1.2c0.6-1,0.4-2.4-0.6-3.3
	l-5.4-5.2c-0.3-0.3-0.3-0.8,0-1.1c0.3-0.3,0.8-0.3,1.1,0l6.3,6c0.5,0.5,1.2,0.7,2,0.6c0.7-0.1,1.4-0.5,1.7-1.2
	c0.6-1,0.4-2.4-0.6-3.3l-6.1-5.5c-0.3-0.3-0.4-0.8-0.1-1.1c0.3-0.3,0.8-0.4,1.1-0.1l6.4,5.7c0.5,0.5,1.3,0.7,2,0.6
	c0.7-0.1,1.3-0.5,1.7-1.2c0.6-1,0.4-2.4-0.6-3.3l-8.7-7.7L34,33.8c-0.9,0.9-2.1,1.3-3.3,1.2c-1.2-0.1-2.4-0.7-3.1-1.8
	c-1.2-1.6-0.9-4,0.6-5.6l7-6.9c2-1.9,4.3-3.6,8.8-3.6C49.6,17.1,54.5,22.4,54.5,28.5L54.5,28.5z"/>
<g>
	<g>
		<linearGradient id="SVGID_2_" gradientUnits="userSpaceOnUse" x1="-0.9278" y1="-1.3731" x2="70.7759" y2="71.2195">
			<stop  offset="0" style="stop-color:#524FA2"/>
			<stop  offset="1" style="stop-color:#EC008C"/>
		</linearGradient>
		<path class="st1" d="M55,2c7.2,0,13,5.8,13,13v40c0,7.2-5.8,13-13,13H15C7.8,68,2,62.2,2,55V15C2,7.8,7.8,2,15,2H55 M55,0H15
			C6.8,0,0,6.8,0,15v40c0,8.3,6.8,15,15,15h40c8.3,0,15-6.8,15-15V15C70,6.8,63.3,0,55,0L55,0z"/>
	</g>
</g>
</svg>
