<?xml version="1.0" encoding="utf-8"?>
<!-- Generator: Adobe Illustrator 24.1.1, SVG Export Plug-In . SVG Version: 6.00 Build 0)  -->
<svg version="1.1" id="Layer_1" xmlns="http://www.w3.org/2000/svg" xmlns:xlink="http://www.w3.org/1999/xlink" x="0px" y="0px"
	 viewBox="0 0 70 70" style="enable-background:new 0 0 70 70;" xml:space="preserve">
<style type="text/css">
	.st0{fill:url(#SVGID_1_);}
	.st1{fill:url(#SVGID_2_);}
</style>
<linearGradient id="SVGID_1_" gradientUnits="userSpaceOnUse" x1="3.0795" y1="-3.820637e-02" x2="67.9684" y2="72.8507">
	<stop  offset="0" style="stop-color:#524FA2"/>
	<stop  offset="1" style="stop-color:#EC008C"/>
</linearGradient>
<path class="st0" d="M26.9,22c1.8,0,3.2-1.5,3.2-3.2s-1.5-3.2-3.2-3.2c-1.8,0-3.2,1.5-3.2,3.2S25.1,22,26.9,22z M26.9,17.2
	c0.9,0,1.6,0.7,1.6,1.6s-0.7,1.6-1.6,1.6s-1.6-0.7-1.6-1.6S26,17.2,26.9,17.2z M35,26.9c1.8,0,3.2-1.5,3.2-3.2
	c0-1.8-1.5-3.2-3.2-3.2s-3.2,1.5-3.2,3.2C31.8,25.4,33.2,26.9,35,26.9z M35,22c0.9,0,1.6,0.7,1.6,1.6s-0.7,1.6-1.6,1.6
	c-0.9,0-1.6-0.7-1.6-1.6S34.1,22,35,22z M43.1,22c1.8,0,3.2-1.5,3.2-3.2s-1.5-3.2-3.2-3.2s-3.2,1.5-3.2,3.2S41.3,22,43.1,22z
	 M43.1,17.2c0.9,0,1.6,0.7,1.6,1.6s-0.7,1.6-1.6,1.6s-1.6-0.7-1.6-1.6S42.2,17.2,43.1,17.2z M54.5,26.1v16.4c0,3.2-1.3,6.3-3.6,8.6
	l-3.2,3.2c-0.2,0.2-0.4,0.2-0.6,0.2s-0.4-0.1-0.6-0.2c-0.3-0.3-0.3-0.8,0-1.1l3.2-3.2c2-2,3.1-4.6,3.1-7.5V26.1
	c0-1.3-1.1-2.4-2.4-2.4S48,24.7,48,26.1c0,0,0,13,0,13.1c0,0.9-0.3,1.8-0.9,2.5l-4.3,4.5c-0.2,0.2-0.4,0.2-0.6,0.2
	c-0.2,0-0.4-0.1-0.6-0.2c-0.3-0.3-0.3-0.8,0-1.1l4.2-4.4c0.4-0.4,0.5-1,0.5-1.6v0c0-0.6-0.2-1.1-0.6-1.6c-0.9-1-2.4-1.1-3.4-0.2
	l-4.4,4.1c-0.8,0.8-1.5,1.7-2,2.7c0.5,1.2,0.7,2.5,0.7,3.8v5.8c0,0.4-0.4,0.8-0.8,0.8c-0.4,0-0.8-0.4-0.8-0.8v-5.8
	c0-2.5-1-4.9-2.9-6.6l-4.4-4.1c-1-0.9-2.5-0.8-3.4,0.2c-0.8,0.9-0.8,2.3-0.1,3.2l4.2,4.4c0.3,0.3,0.3,0.8,0,1.1
	c-0.3,0.3-0.8,0.3-1.1,0L23,41.7c-0.6-0.7-1-1.6-1-2.5c0,0,0-13.1,0-13.1c0-1.3-1.1-2.4-2.4-2.4s-2.4,1.1-2.4,2.4v16.4
	c0,2.8,1.1,5.5,3.1,7.5l3.2,3.2c0.3,0.3,0.3,0.8,0,1.1c-0.2,0.2-0.4,0.2-0.6,0.2c-0.2,0-0.4-0.1-0.6-0.2l-3.2-3.2
	c-2.3-2.3-3.6-5.4-3.6-8.6V26.1c0-2.2,1.8-4.1,4.1-4.1c1.9,0,3.4,1.3,3.9,3c0.9-0.8,2.1-1.4,3.4-1.4c0.7,0,1.3,0.1,1.9,0.4
	c0.4,0.2,0.6,0.6,0.4,1.1c-0.2,0.4-0.6,0.6-1.1,0.4c-0.4-0.2-0.9-0.3-1.3-0.3c-1.6,0-2.9,1.1-3.2,2.5v8c1.5-1.1,3.7-1.1,5.1,0.2
	l4.4,4.1c0.7,0.6,1.3,1.4,1.8,2.2c0.5-0.8,1.1-1.5,1.8-2.2l4.4-4.1c1.5-1.3,3.6-1.4,5.1-0.2v-8c-0.3-1.5-1.7-2.5-3.2-2.5
	c-0.5,0-0.9,0.1-1.3,0.3c-0.4,0.2-0.9,0-1.1-0.4c-0.2-0.4,0-0.9,0.4-1.1c0.6-0.3,1.3-0.4,1.9-0.4c1.3,0,2.5,0.5,3.4,1.4
	c0.5-1.7,2-3,3.9-3C52.6,22,54.5,23.8,54.5,26.1L54.5,26.1z M29.1,32.2c1.1-2.3,3.4-3.7,5.9-3.7s4.8,1.4,5.9,3.7
	c0.2,0.4,0,1.2-0.7,1.2c-0.3,0-0.6-0.2-0.7-0.5c-0.8-1.7-2.6-2.8-4.5-2.8s-3.6,1.1-4.5,2.8c-0.2,0.4-0.7,0.6-1.1,0.4
	C29.1,33.1,28.9,32.6,29.1,32.2L29.1,32.2z"/>
<g>
	<g>
		<linearGradient id="SVGID_2_" gradientUnits="userSpaceOnUse" x1="-0.9278" y1="-1.3731" x2="70.7759" y2="71.2195">
			<stop  offset="0" style="stop-color:#524FA2"/>
			<stop  offset="1" style="stop-color:#EC008C"/>
		</linearGradient>
		<path class="st1" d="M55,2c7.2,0,13,5.8,13,13v40c0,7.2-5.8,13-13,13H15C7.8,68,2,62.2,2,55V15C2,7.8,7.8,2,15,2H55 M55,0H15
			C6.8,0,0,6.8,0,15v40c0,8.3,6.8,15,15,15h40c8.3,0,15-6.8,15-15V15C70,6.8,63.3,0,55,0L55,0z"/>
	</g>
</g>
</svg>
