<?xml version="1.0" encoding="utf-8"?>
<!-- Generator: Adobe Illustrator 24.1.1, SVG Export Plug-In . SVG Version: 6.00 Build 0)  -->
<svg version="1.1" id="Layer_1" xmlns="http://www.w3.org/2000/svg" xmlns:xlink="http://www.w3.org/1999/xlink" x="0px" y="0px"
	 viewBox="0 0 70 70" style="enable-background:new 0 0 70 70;" xml:space="preserve">
<style type="text/css">
	.st0{fill:url(#SVGID_1_);}
	.st1{fill:url(#SVGID_2_);}
</style>
<linearGradient id="SVGID_1_" gradientUnits="userSpaceOnUse" x1="0.1657" y1="2.3814" x2="67.4249" y2="73.1962">
	<stop  offset="0" style="stop-color:#524FA2"/>
	<stop  offset="1" style="stop-color:#EC008C"/>
</linearGradient>
<path class="st0" d="M31.7,33.3c0,0.9-0.7,1.7-1.7,1.7c-0.9,0-1.7-0.7-1.7-1.7c0-0.9,0.7-1.7,1.7-1.7C30.9,31.7,31.7,32.4,31.7,33.3
	z M40,31.7c-0.9,0-1.7,0.7-1.7,1.7c0,0.9,0.7,1.7,1.7,1.7c0.9,0,1.7-0.7,1.7-1.7C41.7,32.4,40.9,31.7,40,31.7z M55,33.3
	c0,2.8-2.2,5-5,5h-1c-0.8,1.9-2.1,3.8-3.9,5.5c2.7,2.8,4.4,6.3,4.9,10.2c0.1,0.5-0.3,0.9-0.7,0.9c0,0-0.1,0-0.1,0
	c-0.4,0-0.8-0.3-0.8-0.7c-0.4-3.6-2-6.8-4.5-9.3c-2.5,2-5.6,3.4-8.9,3.4h0c-3.2,0-6.3-1.4-8.9-3.4c-2.5,2.5-4,5.8-4.5,9.3
	c-0.1,0.4-0.4,0.7-0.8,0.7c0,0-0.1,0-0.1,0C20.3,54.9,20,54.5,20,54c0.5-3.9,2.2-7.4,4.9-10.2c-1.7-1.7-3.1-3.6-3.9-5.5h-1
	c-2.8,0-5-2.2-5-5c0-2.5,1.9-4.6,4.4-5C20.6,20.7,27.2,15,35,15s14.4,5.7,15.6,13.4C53.1,28.7,55,30.8,55,33.3z M53.3,33.3
	c0-1.8-1.5-3.3-3.3-3.3c-0.4,0-0.9-0.3-0.9-0.7c-0.8-7.2-6.8-12.6-14.1-12.6c-2.8,0-5,2.2-5,5s2.2,5,5,5c2.4,0,4.5-1.7,4.9-4.1
	c0.1-0.5,0.5-0.8,1-0.7c0.5,0.1,0.8,0.5,0.7,1C41,26,38.2,28.3,35,28.3c-3.7,0-6.7-3-6.7-6.7c0-1.5,0.5-2.8,1.3-3.9
	c-4.7,1.9-8.1,6.2-8.7,11.5c-0.1,0.5-0.6,0.8-1,0.7c-1.8,0-3.3,1.5-3.3,3.3c0,1.8,1.5,3.3,3.3,3.3h1.6c0.4,0,0.7,0.2,0.8,0.5
	c1.6,4.5,6.9,9.4,12.6,9.4h0c5.7,0,11-4.9,12.6-9.4c0.1-0.3,0.4-0.5,0.8-0.5H50C51.8,36.7,53.3,35.2,53.3,33.3L53.3,33.3z"/>
<g>
	<g>
		<linearGradient id="SVGID_2_" gradientUnits="userSpaceOnUse" x1="-8.1417" y1="-14.9029" x2="86.3768" y2="94.4305">
			<stop  offset="0" style="stop-color:#524FA2"/>
			<stop  offset="1" style="stop-color:#EC008C"/>
		</linearGradient>
		<path class="st1" d="M55,2c7.2,0,13,5.8,13,13v40c0,7.2-5.8,13-13,13H15C7.8,68,2,62.2,2,55V15C2,7.8,7.8,2,15,2H55 M55,0H15
			C6.8,0,0,6.8,0,15v40c0,8.3,6.8,15,15,15h40c8.3,0,15-6.8,15-15V15C70,6.8,63.3,0,55,0L55,0z"/>
	</g>
</g>
</svg>
