<?xml version="1.0" encoding="utf-8"?>
<!-- Generator: Adobe Illustrator 24.1.1, SVG Export Plug-In . SVG Version: 6.00 Build 0)  -->
<svg version="1.1" id="Layer_1" xmlns="http://www.w3.org/2000/svg" xmlns:xlink="http://www.w3.org/1999/xlink" x="0px" y="0px"
	 viewBox="0 0 70 70" style="enable-background:new 0 0 70 70;" xml:space="preserve">
<style type="text/css">
	.st0{fill:url(#SVGID_1_);}
	.st1{fill:url(#SVGID_2_);}
</style>
<linearGradient id="SVGID_1_" gradientUnits="userSpaceOnUse" x1="-0.8491" y1="1.72" x2="67.2991" y2="75.2015">
	<stop  offset="0" style="stop-color:#524FA2"/>
	<stop  offset="1" style="stop-color:#EC008C"/>
</linearGradient>
<path class="st0" d="M47.2,25.2h-8.8l-0.5-0.5c-0.6-0.6-1.3-0.9-2-1.1l5.5-2.6c0.6-0.4,1-1,1-1.7c0-0.7-0.4-1.4-1-1.8l-3.9-1.8
	c-0.4-0.2-0.8-0.3-1.2-0.3c-1.5,0-2.8,1.3-2.8,2.8v5.7c-0.5,0.2-0.9,0.5-1.3,0.8l-0.5,0.5h-8.8c-4,0-7.3,3.3-7.3,7.3v16.3
	c0,3.1,2.6,5.7,5.7,5.7h27.7c3.1,0,5.7-2.6,5.7-5.7V32.6C54.5,28.5,51.2,25.2,47.2,25.2z M47.2,26.9c2.9,0,5.2,2.1,5.6,4.9h-5.4
	c-1.5,0-2.9-0.6-4-1.6L40,26.9H47.2L47.2,26.9z M35,18.3c0-0.7,0.5-1.2,1.2-1.2c0.2,0,0.3,0,0.5,0.1l3.8,1.8
	c0.2,0.1,0.2,0.3,0.2,0.3c0,0.1,0,0.2-0.1,0.3L35,22.3L35,18.3L35,18.3z M22.8,26.9H30l-3.4,3.3c-1.1,1-2.5,1.6-4,1.6h-5.4
	C17.6,29,19.9,26.9,22.8,26.9z M38.3,52.9h-6.5v-9.8c0-1.8,1.5-3.3,3.3-3.3c1.8,0,3.3,1.5,3.3,3.3V52.9z M48.8,52.9h-8.9v-9.8
	c0-2.7-2.2-4.9-4.9-4.9s-4.9,2.2-4.9,4.9v9.8h-8.9c-2.2,0-4.1-1.8-4.1-4.1V33.4h5.5c1.9,0,3.7-0.7,5.1-2.1l5.6-5.4
	c1-0.9,2.5-0.9,3.5,0l5.6,5.4c1.4,1.3,3.2,2.1,5.1,2.1h5.5v15.5C52.9,51.1,51.1,52.9,48.8,52.9z M26.9,40.7c0,0.4-0.4,0.8-0.8,0.8
	h-3.3c-0.4,0-0.8-0.4-0.8-0.8s0.4-0.8,0.8-0.8h3.3C26.5,39.9,26.9,40.2,26.9,40.7z M26.9,47.2c0,0.4-0.4,0.8-0.8,0.8h-3.3
	c-0.4,0-0.8-0.4-0.8-0.8s0.4-0.8,0.8-0.8h3.3C26.5,46.4,26.9,46.8,26.9,47.2z M48,40.7c0,0.4-0.4,0.8-0.8,0.8h-3.3
	c-0.4,0-0.8-0.4-0.8-0.8s0.4-0.8,0.8-0.8h3.3C47.6,39.9,48,40.2,48,40.7z M48,47.2c0,0.4-0.4,0.8-0.8,0.8h-3.3
	c-0.4,0-0.8-0.4-0.8-0.8s0.4-0.8,0.8-0.8h3.3C47.6,46.4,48,46.8,48,47.2z M36.6,31.7c0,0.9-0.7,1.6-1.6,1.6c-0.9,0-1.6-0.7-1.6-1.6
	c0-0.9,0.7-1.6,1.6-1.6C35.9,30.1,36.6,30.8,36.6,31.7z"/>
<g>
	<g>
		<linearGradient id="SVGID_2_" gradientUnits="userSpaceOnUse" x1="-0.9278" y1="-1.3731" x2="70.7759" y2="71.2195">
			<stop  offset="0" style="stop-color:#524FA2"/>
			<stop  offset="1" style="stop-color:#EC008C"/>
		</linearGradient>
		<path class="st1" d="M55,2c7.2,0,13,5.8,13,13v40c0,7.2-5.8,13-13,13H15C7.8,68,2,62.2,2,55V15C2,7.8,7.8,2,15,2H55 M55,0H15
			C6.8,0,0,6.8,0,15v40c0,8.3,6.8,15,15,15h40c8.3,0,15-6.8,15-15V15C70,6.8,63.3,0,55,0L55,0z"/>
	</g>
</g>
</svg>
