<?xml version="1.0" encoding="utf-8"?>
<!-- Generator: Adobe Illustrator 24.1.1, SVG Export Plug-In . SVG Version: 6.00 Build 0)  -->
<svg version="1.1" id="Layer_1" xmlns="http://www.w3.org/2000/svg" xmlns:xlink="http://www.w3.org/1999/xlink" x="0px" y="0px"
	 viewBox="0 0 25 25" style="enable-background:new 0 0 25 25;" xml:space="preserve">
<style type="text/css">
	.st0{fill:#FFFFFF;}
</style>
<g>
	<path class="st0" d="M12.5,0C5.6,0,0,5.6,0,12.5S5.6,25,12.5,25S25,19.4,25,12.5S19.4,0,12.5,0z M18.6,15c0,1-0.3,1.8-1,2.6
		c-0.7,0.7-1.6,0.9-2.6,1c-1,0.1-4,0.1-5,0c-1,0-1.8-0.3-2.6-1c-0.7-0.7-0.9-1.6-1-2.6c-0.1-1-0.1-4,0-5c0-1,0.3-1.8,1-2.6
		C8.1,6.7,9,6.5,10,6.4c1-0.1,4-0.1,5,0c1,0,1.8,0.3,2.6,1c0.7,0.7,0.9,1.6,1,2.6C18.6,11,18.6,14,18.6,15z"/>
	<path class="st0" d="M17.3,8.9c-0.2-0.5-0.6-0.9-1.2-1.2c-0.8-0.3-2.7-0.2-3.6-0.2S9.7,7.4,8.9,7.7C8.4,8,7.9,8.4,7.7,8.9
		c-0.3,0.8-0.2,2.7-0.2,3.6s-0.1,2.8,0.2,3.6c0.2,0.5,0.6,0.9,1.2,1.2c0.8,0.3,2.7,0.2,3.6,0.2s2.8,0.1,3.6-0.2
		c0.5-0.2,0.9-0.6,1.2-1.2c0.3-0.8,0.2-2.7,0.2-3.6S17.6,9.7,17.3,8.9z M12.5,15.6c-1.7,0-3.1-1.4-3.1-3.1c0-1.7,1.4-3.1,3.1-3.1
		c1.7,0,3.1,1.4,3.1,3.1C15.6,14.2,14.2,15.6,12.5,15.6z M15.8,10C15.4,10,15,9.6,15,9.2s0.3-0.7,0.7-0.7s0.7,0.3,0.7,0.7
		C16.5,9.6,16.2,10,15.8,10z"/>
	<path class="st0" d="M12.5,10.5c-1.1,0-2,0.9-2,2c0,1.1,0.9,2,2,2c1.1,0,2-0.9,2-2C14.5,11.4,13.6,10.5,12.5,10.5z"/>
</g>
</svg>
