<?xml version="1.0" encoding="utf-8"?>
<!-- Generator: Adobe Illustrator 24.1.1, SVG Export Plug-In . SVG Version: 6.00 Build 0)  -->
<svg version="1.1" id="Layer_1" xmlns="http://www.w3.org/2000/svg" xmlns:xlink="http://www.w3.org/1999/xlink" x="0px" y="0px"
	 viewBox="0 0 25 25" style="enable-background:new 0 0 25 25;" xml:space="preserve">
<style type="text/css">
	.st0{fill:#FFFFFF;}
</style>
<path class="st0" d="M12.5,0C5.6,0,0,5.6,0,12.5S5.6,25,12.5,25S25,19.4,25,12.5S19.4,0,12.5,0z M18.2,15.6l-0.5,2
	c-0.1,0.4-0.5,0.7-0.9,0.7c-5.5,0-10-4.5-10-10c0-0.4,0.3-0.8,0.7-0.9l2-0.5c0.4-0.1,0.9,0.1,1.1,0.5l0.9,2.1c0.2,0.4,0,0.8-0.3,1
	L10,11.4c0.7,1.6,2,2.8,3.6,3.6l0.9-1.1c0.3-0.3,0.7-0.4,1-0.3l2.1,0.9C18.1,14.7,18.3,15.2,18.2,15.6z"/>
</svg>
